<?xml version="1.0" encoding="iso-8859-1"?>
<!-- Generator: Adobe Illustrator 19.0.0, SVG Export Plug-In . SVG Version: 6.00 Build 0)  -->
<svg version="1.1" id="Layer_1" xmlns="http://www.w3.org/2000/svg" xmlns:xlink="http://www.w3.org/1999/xlink" x="0px" y="0px"
	 viewBox="0 0 512 512" style="enable-background:new 0 0 512 512;" xml:space="preserve">
<polygon style="fill:#FEC45E;" points="469.302,144.261 433.99,179.573 402.162,147.746 453.389,128.347 "/>
<rect x="398.204" y="115.684" transform="matrix(-0.7071 0.7071 -0.7071 -0.7071 816.7587 -71.4314)" style="fill:#FCDB5A;" width="49.939" height="35.513"/>
<path style="fill:#FEC45E;" d="M330.933,282.629l31.827-31.827l-41.025-41.025l-31.716,31.938l-2.531,32.869L50.145,486.857
	l15.913,15.913c12.301,12.301,32.44,12.309,44.75,0L330.933,282.629z"/>
<path style="fill:#FCDB5A;" d="M315.02,266.716L94.894,486.858c-12.309,12.309-32.448,12.301-44.75,0l-10.67-10.67
	c-7.56-7.56-7.56-19.813,0-27.371l23.608-23.608l44.742,0.008l182.195-183.5L315.02,266.716z"/>
<path style="fill:#D4ED85;" d="M321.952,26.059l-38.75,65.993l-65.986,38.742c-8.625-7.193-17.322-14.33-26.059-21.46
	c16.654-19.741,34.079-38.773,52.261-57.067C261.711,34.087,280.744,16.662,300.492,0C307.622,8.737,314.758,17.434,321.952,26.059z
	"/>
<path style="fill:#705750;" d="M408.878,122.634c-2.697-2.697-5.379-5.41-8.029-8.14l-63.519,31.692l-31.692,63.519
	c2.729,2.65,5.443,5.332,8.14,8.029l49.11,49.11l63.464-31.637l31.637-63.464L408.878,122.634z"/>
<path style="fill:#87635C;" d="M400.85,114.495l-95.211,95.211c-28.358-27.754-58.021-53.597-88.424-78.908
	c15.874-18.802,32.718-37.19,50.072-54.655c17.465-17.354,35.853-34.198,54.655-50.072
	C347.253,56.473,373.097,86.136,400.85,114.495z"/>
<rect x="353.295" y="215.1" transform="matrix(-0.7071 0.7071 -0.7071 -0.7071 880.1104 94.228)" style="fill:#594B44;" width="134.49" height="28.581"/>
<g>
</g>
<g>
</g>
<g>
</g>
<g>
</g>
<g>
</g>
<g>
</g>
<g>
</g>
<g>
</g>
<g>
</g>
<g>
</g>
<g>
</g>
<g>
</g>
<g>
</g>
<g>
</g>
<g>
</g>
</svg>
