<?xml version="1.0" encoding="iso-8859-1"?>
<!-- Generator: Adobe Illustrator 19.0.0, SVG Export Plug-In . SVG Version: 6.00 Build 0)  -->
<svg version="1.1" id="Layer_1" xmlns="http://www.w3.org/2000/svg" xmlns:xlink="http://www.w3.org/1999/xlink" x="0px" y="0px"
	 viewBox="0 0 512 512" style="enable-background:new 0 0 512 512;" xml:space="preserve">
<path style="fill:#FEC45E;" d="M449.861,246.663c-4.418,36.17-20.971,68.592-45.458,93.078l-57.422,57.422l-46.671-46.671
	L449.861,246.663z"/>
<g>
	<path style="fill:#FFAD61;" d="M242.282,408.52l149.714-103.042c-4.589,35.579-20.932,67.48-45.014,91.686
		c-0.101,0.101-0.202,0.202-0.304,0.304l-57.724,57.724L242.282,408.52z"/>
	<path style="fill:#FFAD61;" d="M449.861,246.663c-4.418,36.171-20.971,68.592-45.458,93.078l57.724-57.724
		c28.827-28.828,46.648-68.63,46.648-112.595c0-43.514-17.439-82.951-45.723-111.684L449.861,246.663z"/>
</g>
<path style="fill:#FEC45E;" d="M349.525,10.171c-43.965,0-83.767,17.821-112.595,46.648l-57.422,57.422L449.86,246.663
	c22.854-26.883,38.449-59.623,42.377-93.779c4.465-38.846-7.001-72.278-29.186-95.147c-0.506-0.521-1.011-1.026-1.525-1.54
	C432.764,27.743,393.194,10.171,349.525,10.171z"/>
<path style="fill:#FCDB5A;" d="M291.801,67.895c-43.816-0.008-83.503,17.697-112.291,46.345c-0.109,0.094-0.21,0.195-0.311,0.296
	l-57.686,57.701l270.484,133.239l46.795-46.795c3.85-3.85,7.553-7.864,11.069-12.018c0.778-6.394,1.183-12.912,1.183-19.524
	C451.051,139.187,379.752,67.889,291.801,67.895z"/>
<g>
	<path style="fill:#FEC45E;" d="M234.075,125.621c-43.965,0-83.752,17.806-112.563,46.617c-0.031,0.031-57.764,57.749-57.764,57.749
		l270.523,133.216l57.724-57.724c0.879-6.744,1.33-13.62,1.33-20.605C393.326,196.911,322.036,125.621,234.075,125.621z"/>
	<path style="fill:#FEC45E;" d="M292.322,159.946c-1.053,0-2.122-0.202-3.154-0.63c-4.21-1.744-6.21-6.57-4.465-10.779l8.717-21.045
		c1.743-4.209,6.573-6.211,10.779-4.465c4.21,1.744,6.21,6.57,4.465,10.779l-8.717,21.045
		C298.633,158.027,295.561,159.946,292.322,159.946z"/>
	<path style="fill:#FEC45E;" d="M236.929,147.79c-4.558,0-8.25-3.693-8.25-8.25v-22.778c0-4.558,3.693-8.25,8.25-8.25
		s8.25,3.693,8.25,8.25v22.778C245.179,144.097,241.485,147.79,236.929,147.79z"/>
</g>
<g>
	<path style="fill:#FCDB5A;" d="M427.162,182.411c-3.237,0-6.309-1.917-7.626-5.095c-1.745-4.209,0.254-9.036,4.465-10.779
		l21.044-8.718c4.21-1.744,9.036,0.254,10.779,4.465c1.745,4.209-0.254,9.036-4.465,10.779l-21.044,8.718
		C429.282,182.208,428.213,182.411,427.162,182.411z"/>
	<path style="fill:#FCDB5A;" d="M396.581,134.644c-2.111,0-4.223-0.805-5.835-2.416c-3.222-3.223-3.222-8.446,0-11.668
		l16.107-16.107c3.223-3.221,8.446-3.221,11.668,0c3.222,3.223,3.222,8.446,0,11.668l-16.107,16.107
		C400.804,133.839,398.692,134.644,396.581,134.644z"/>
</g>
<path style="fill:#FFAD61;" d="M503.744,244.628c-1.053,0-2.122-0.204-3.154-0.63l-21.044-8.718
	c-4.21-1.744-6.21-6.571-4.465-10.779c1.744-4.211,6.573-6.207,10.779-4.465l21.044,8.718c4.21,1.744,6.21,6.571,4.465,10.779
	C510.053,242.709,506.982,244.628,503.744,244.628z"/>
<g>
	<path style="fill:#FEC45E;" d="M407.775,44.493c-1.053,0-2.122-0.202-3.154-0.63c-4.21-1.744-6.21-6.57-4.465-10.779l8.717-21.044
		c1.745-4.209,6.574-6.211,10.779-4.465c4.21,1.744,6.21,6.57,4.465,10.779l-8.717,21.044
		C414.084,42.574,411.013,44.493,407.775,44.493z"/>
	<path style="fill:#FEC45E;" d="M296.555,42.31c-3.237,0-6.309-1.917-7.626-5.095l-8.717-21.044
		c-1.745-4.21,0.254-9.036,4.465-10.779c4.21-1.745,9.036,0.254,10.779,4.465l8.717,21.044c1.745,4.21-0.254,9.036-4.465,10.779
		C298.677,42.108,297.607,42.31,296.555,42.31z"/>
</g>
<circle style="fill:#FCDB5A;" cx="176.35" cy="342.591" r="159.244"/>
<circle style="fill:#FFE6B8;" cx="176.35" cy="342.591" r="106.166"/>
<g>
	<path style="fill:#FCDB5A;" d="M31.028,347.99H8.25c-4.558,0-8.25-3.693-8.25-8.25c0-4.558,3.693-8.25,8.25-8.25h22.778
		c4.558,0,8.25,3.693,8.25,8.25C39.279,344.297,35.586,347.99,31.028,347.99z"/>
	<path style="fill:#FCDB5A;" d="M19.959,412.539c-3.237,0-6.309-1.917-7.626-5.095c-1.745-4.21,0.254-9.036,4.465-10.779
		l21.044-8.717c4.209-1.744,9.036,0.254,10.779,4.465c1.745,4.21-0.254,9.036-4.465,10.779l-21.044,8.717
		C22.08,412.337,21.011,412.539,19.959,412.539z"/>
	<path style="fill:#FCDB5A;" d="M238.052,507.24c-3.237,0-6.309-1.917-7.626-5.095L221.71,481.1
		c-1.745-4.21,0.254-9.036,4.465-10.779c4.21-1.746,9.036,0.254,10.779,4.465l8.717,21.044c1.745,4.21-0.254,9.036-4.465,10.779
		C240.174,507.037,239.104,507.24,238.052,507.24z"/>
	<path style="fill:#FCDB5A;" d="M281.128,250.096c-2.111,0-4.223-0.805-5.835-2.416c-3.222-3.223-3.222-8.446,0-11.668
		l16.107-16.107c3.223-3.221,8.446-3.221,11.668,0c3.222,3.223,3.222,8.446,0,11.668l-16.107,16.107
		C285.35,249.291,283.239,250.096,281.128,250.096z"/>
	<path style="fill:#FCDB5A;" d="M75.608,246.066c-2.111,0-4.223-0.805-5.835-2.416l-16.107-16.107
		c-3.222-3.223-3.222-8.446,0-11.668c3.223-3.221,8.446-3.221,11.668,0l16.107,16.107c3.222,3.223,3.222,8.446,0,11.668
		C79.831,245.261,77.719,246.066,75.608,246.066z"/>
	<circle style="fill:#FCDB5A;" cx="176.35" cy="342.591" r="53.078"/>
</g>
<g>
</g>
<g>
</g>
<g>
</g>
<g>
</g>
<g>
</g>
<g>
</g>
<g>
</g>
<g>
</g>
<g>
</g>
<g>
</g>
<g>
</g>
<g>
</g>
<g>
</g>
<g>
</g>
<g>
</g>
</svg>
