<?xml version="1.0" encoding="iso-8859-1"?>
<!-- Generator: Adobe Illustrator 19.0.0, SVG Export Plug-In . SVG Version: 6.00 Build 0)  -->
<svg version="1.1" id="Layer_1" xmlns="http://www.w3.org/2000/svg" xmlns:xlink="http://www.w3.org/1999/xlink" x="0px" y="0px"
	 viewBox="0 0 512 512" style="enable-background:new 0 0 512 512;" xml:space="preserve">
<polygon style="fill:#D35B38;" points="387.29,74.556 256,8.17 124.71,74.556 49.087,219.528 49.087,290.195 148.829,98.979 
	256,44.795 271.656,52.71 430.232,503.83 462.913,503.83 462.913,219.528 "/>
<polygon style="fill:#E86F22;" points="430.232,227.546 430.232,503.83 49.087,503.83 49.087,290.195 148.829,98.979 256,44.795 
	363.171,98.979 "/>
<rect x="253.298" y="107.237" style="fill:#4D3D36;" width="54.468" height="146.922"/>
<rect x="204.234" y="107.237" style="fill:#594B44;" width="70.852" height="146.922"/>
<path style="fill:#FCDB5A;" d="M480.985,262.332c-2.947,0-5.792-1.599-7.25-4.393L381.262,80.663L256,17.325L130.738,80.663
	L38.266,257.94c-2.087,4-7.021,5.554-11.023,3.465c-4-2.087-5.552-7.022-3.465-11.023l93.686-179.604
	c0.79-1.514,2.034-2.742,3.558-3.512L252.313,0.879c2.318-1.172,5.055-1.172,7.374,0l131.291,66.387
	c1.524,0.77,2.768,1.998,3.558,3.512l93.686,179.604c2.087,4.001,0.536,8.936-3.465,11.023
	C483.551,262.035,482.258,262.332,480.985,262.332z"/>
<path style="fill:#D4ED85;" d="M495.594,512H16.406c-4.512,0-8.17-3.658-8.17-8.17s3.658-8.17,8.17-8.17h479.188
	c4.513,0,8.17,3.658,8.17,8.17S500.107,512,495.594,512z"/>
<g>
	<path style="fill:#FFFFFF;" d="M311.037,115.408H200.963c-4.512,0-8.17-3.658-8.17-8.17s3.658-8.17,8.17-8.17h110.073
		c4.513,0,8.17,3.658,8.17,8.17S315.55,115.408,311.037,115.408z"/>
	<path style="fill:#FFFFFF;" d="M393.829,262.331H118.171c-4.512,0-8.17-3.658-8.17-8.17s3.658-8.17,8.17-8.17h275.659
		c4.513,0,8.17,3.658,8.17,8.17S398.342,262.331,393.829,262.331z"/>
</g>
<rect x="161.748" y="286.84" style="fill:#D35B38;" width="188.514" height="184.309"/>
<path style="fill:#FFFFFF;" d="M350.255,278.672h-188.51c-4.512,0-8.17,3.658-8.17,8.17v184.307c0,4.512,3.658,8.17,8.17,8.17
	h188.51c4.513,0,8.17-3.658,8.17-8.17V286.842C358.425,282.33,354.768,278.672,350.255,278.672z M244.313,378.995l-74.398,72.739
	V306.257L244.313,378.995z M181.788,295.012h148.423L256,367.569L181.788,295.012z M256,390.422l74.212,72.557H181.788L256,390.422z
	 M267.687,378.995l74.398-72.739v145.478L267.687,378.995z"/>
<g>
</g>
<g>
</g>
<g>
</g>
<g>
</g>
<g>
</g>
<g>
</g>
<g>
</g>
<g>
</g>
<g>
</g>
<g>
</g>
<g>
</g>
<g>
</g>
<g>
</g>
<g>
</g>
<g>
</g>
</svg>
