<?xml version="1.0" encoding="iso-8859-1"?>
<!-- Generator: Adobe Illustrator 19.0.0, SVG Export Plug-In . SVG Version: 6.00 Build 0)  -->
<svg version="1.1" id="Layer_1" xmlns="http://www.w3.org/2000/svg" xmlns:xlink="http://www.w3.org/1999/xlink" x="0px" y="0px"
	 viewBox="0 0 512 512" style="enable-background:new 0 0 512 512;" xml:space="preserve">
<path style="fill:#FFAD61;" d="M426.655,105.371L395.777,92.43v327.14l30.878-12.941c14.899-45.225,23.293-96.414,23.293-150.629
	S441.553,150.596,426.655,105.371z"/>
<g>
	<path style="fill:#FEC45E;" d="M396.947,96.875C409.258,144.654,416.19,198.724,416.19,256c0,28.638-1.733,56.478-5.007,83.124
		c-3.275,26.646-8.079,52.111-14.235,76.001c-0.383,1.497-0.776,2.971-1.17,4.445l-54.621,22.899V69.531l54.621,22.899
		C396.171,93.904,396.565,95.378,396.947,96.875z"/>
	<path style="fill:#FEC45E;" d="M199.358,436.438c3.275,16.609-11.557,69.351-11.557,69.351
		c-45.754-8.822-68.529-23.957-68.529-23.957c-7.258-12.119-13.931-25.071-19.974-38.754
		C99.299,443.077,166.624,432.409,199.358,436.438z"/>
	<path style="fill:#FEC45E;" d="M187.802,6.212c0,0,14.831,52.753,11.557,69.351c-32.734,4.028-100.059-6.639-100.059-6.639
		c6.043-13.683,12.716-26.635,19.974-38.754C119.272,30.169,142.048,15.034,187.802,6.212z"/>
	<path style="fill:#FEC45E;" d="M85.334,105.371C70.447,150.596,62.052,201.784,62.052,256s8.395,105.404,23.282,150.629
		c14.865,5.266,43.278,12.963,85.498,17.836V87.535C128.612,92.408,100.199,100.104,85.334,105.371z"/>
</g>
<g>
	<path style="fill:#FFAD61;" d="M392.728,30.169c0,0-7.674-5.097-23.046-11.095l8.473,51.403l34.535-1.553
		C406.659,55.24,399.974,42.288,392.728,30.169z"/>
	<path style="fill:#FFAD61;" d="M377.908,442.312l-8.226,50.615c15.371-5.998,23.046-11.095,23.046-11.095
		c7.247-12.119,13.931-25.071,19.962-38.754L377.908,442.312z"/>
</g>
<g>
	<path style="fill:#FEC45E;" d="M389.408,70.476l-76.778,5.097l11.568-69.362c19.208,3.702,34.366,8.518,45.484,12.862
		c5.705,12.333,10.96,25.465,15.731,39.295C386.809,62.396,388.137,66.425,389.408,70.476z"/>
	<path style="fill:#FEC45E;" d="M312.631,439.814l76.53,2.498c-1.193,3.792-2.442,7.551-3.747,11.32
		c-4.771,13.83-10.026,26.962-15.731,39.295c-11.118,4.344-26.275,9.16-45.484,12.862L312.631,439.814z"/>
</g>
<g>
	<path style="fill:#FE9837;" d="M335.134,458.932c-3.263,16.62-6.932,32.273-10.938,46.856c-18.837,3.646-41.568,6.212-68.203,6.212
		l-11.253-63.049L335.134,458.932z"/>
	<path style="fill:#FE9837;" d="M341.154,87.535c7.764,50.514,12.142,107.768,12.142,168.465s-4.377,117.963-12.142,168.465
		c0,0-52.303,27.142-85.161,27.142c0,0-33.758-133.21-33.758-195.607s33.758-195.607,33.758-195.607
		C288.851,60.393,341.154,87.535,341.154,87.535z"/>
	<path style="fill:#FE9837;" d="M335.134,53.057l-90.393,17.869L255.993,0c26.635,0,49.366,2.566,68.203,6.212
		C328.202,20.795,331.871,36.448,335.134,53.057z"/>
</g>
<g>
	<path style="fill:#FFAD61;" d="M255.993,445.575c0,0,0,51.369,0,66.425c-26.635,0-49.355-2.566-68.192-6.211
		c-4.017-14.584-7.674-30.236-10.949-46.845L255.993,445.575z"/>
	<path style="fill:#FFAD61;" d="M255.993,256c0,62.397,0,143.765,0,195.607c-32.858,0-85.161-27.142-85.161-27.142
		c-7.753-50.502-12.13-107.768-12.13-168.465s4.377-117.951,12.13-168.465c0,0,52.303-27.142,85.161-27.142
		C255.993,112.235,255.993,193.604,255.993,256z"/>
	<path style="fill:#FFAD61;" d="M255.993,0c0,15.056,0,70.926,0,70.926l-79.141-17.858c3.275-16.609,6.932-32.273,10.949-46.856
		C206.639,2.566,229.358,0,255.993,0z"/>
</g>
<g>
	<path style="fill:#705750;" d="M412.69,68.923c5.255,11.872,9.767,23.766,13.965,36.448c-6.83-2.228-16.575-5.109-29.583-8.023
		l-18.998-20.452c0,0,8.57-14.905,8.477-15.197C396.34,64.017,405.004,66.481,412.69,68.923z"/>
	<path style="fill:#705750;" d="M412.69,443.077c5.255-11.872,9.767-23.766,13.965-36.448c-6.83,2.228-16.575,5.109-29.583,8.023
		l-18.998,20.452c0,0,8.57,14.905,8.477,15.197C396.34,447.983,405.004,445.519,412.69,443.077z"/>
</g>
<g>
	<path style="fill:#87635C;" d="M396.947,96.875c0.045,0.158,0.079,0.315,0.124,0.473c-29.268-6.56-75.033-13.323-141.076-13.323
		c-95.367,0-148.446,14.111-170.659,21.346c4.197-12.682,8.71-24.576,13.965-36.448c31.947-10.161,80.648-20.503,156.695-20.503
		c57.727,0,99.699,5.964,130.554,13.278C390.41,73.143,393.785,84.654,396.947,96.875z"/>
	<path style="fill:#87635C;" d="M397.071,414.652c-0.045,0.158-0.079,0.315-0.124,0.473c-3.162,12.22-6.538,23.732-10.398,35.176
		c-30.855,7.314-72.828,13.278-130.554,13.278c-76.046,0-124.748-10.341-156.695-20.503c-5.255-11.872-9.767-23.766-13.965-36.448
		c22.213,7.236,75.292,21.346,170.659,21.346C322.038,427.976,367.803,421.213,397.071,414.652z"/>
</g>
<g>
</g>
<g>
</g>
<g>
</g>
<g>
</g>
<g>
</g>
<g>
</g>
<g>
</g>
<g>
</g>
<g>
</g>
<g>
</g>
<g>
</g>
<g>
</g>
<g>
</g>
<g>
</g>
<g>
</g>
</svg>
