<?xml version="1.0" encoding="iso-8859-1"?>
<!-- Generator: Adobe Illustrator 19.0.0, SVG Export Plug-In . SVG Version: 6.00 Build 0)  -->
<svg version="1.1" id="Layer_1" xmlns="http://www.w3.org/2000/svg" xmlns:xlink="http://www.w3.org/1999/xlink" x="0px" y="0px"
	 viewBox="0 0 512 512" style="enable-background:new 0 0 512 512;" xml:space="preserve">
<path style="fill:#FFF3DC;" d="M278.036,198.275l-74.582-62.128c-13.38-11.146-15.2-31.031-4.053-44.412
	c11.146-13.38,31.031-15.189,44.412-4.042l67.151,80.64L278.036,198.275z"/>
<g>
	<path style="fill:#FFE6B8;" d="M278.276,157.438l21.911-20.419L278.516,116.6l-34.703-28.907
		c-11.146,13.38-9.327,33.265,4.053,44.412L278.276,157.438z"/>
	<path style="fill:#FFE6B8;" d="M417.947,198.275l74.582-62.128c13.38-11.146,15.2-31.031,4.053-44.412s-31.031-15.189-44.412-4.042
		l-67.151,80.64L417.947,198.275z"/>
</g>
<path style="fill:#FFDB9A;" d="M417.707,157.438l-21.91-20.419l21.671-20.419l34.703-28.907c11.146,13.38,9.327,33.265-4.053,44.412
	L417.707,157.438z"/>
<g>
	<path style="fill:#4D3D36;" d="M319.905,300.497c-4.513,0-8.172-3.658-8.172-8.172v-51.106h16.344v51.106
		C328.077,296.839,324.418,300.497,319.905,300.497z"/>
	<path style="fill:#4D3D36;" d="M376.079,300.497c-4.513,0-8.172-3.658-8.172-8.172v-51.106h16.344v51.106
		C384.251,296.839,380.593,300.497,376.079,300.497z"/>
	<path style="fill:#4D3D36;" d="M339.819,56.705V8.172c0-4.514,3.659-8.172,8.172-8.172s8.172,3.658,8.172,8.172v48.533H339.819z"/>
</g>
<g>
	<path style="fill:#705750;" d="M347.988,268.227l37.264-91.732l32.688,21.792C417.939,236.912,386.624,268.227,347.988,268.227z"/>
	<polygon style="fill:#705750;" points="417.699,157.438 417.471,116.6 363.46,97.544 363.46,171.069 	"/>
	<path style="fill:#705750;" d="M367.535,97.543L348.01,34.925c1.133,0.349,37.275,11.985,57.138,40.827L367.535,97.543z"/>
</g>
<g>
	<polygon style="fill:#87635C;" points="385.252,179.229 385.252,94.808 278.516,116.6 278.287,157.438 	"/>
	<path style="fill:#87635C;" d="M385.252,198.286l-53.602-21.792l-53.602,21.792c0,38.626,31.315,69.941,69.941,69.941
		C368.57,268.227,385.252,236.923,385.252,198.286z"/>
	<path style="fill:#87635C;" d="M290.839,75.751l43.796,21.792l43.796-21.792c-10.514-28.667-29.604-40.336-30.421-40.827
		C347.988,34.914,311.018,46.452,290.839,75.751z"/>
</g>
<path style="fill:#FEC45E;" d="M417.939,198.286l-0.24-40.849h-32.448l-21.792,20.419l21.792,20.419
	C385.252,198.286,417.939,198.286,417.939,198.286z"/>
<path style="fill:#FCDB5A;" d="M385.252,198.275v-40.838H278.287l-0.24,40.849C278.047,198.286,385.252,198.286,385.252,198.275z"/>
<path style="fill:#FEC45E;" d="M417.471,116.6h-32.219l-24.923-20.424l18.102-20.424h26.717
	c7.518,10.918,12.705,24.287,12.792,40.456L417.471,116.6z"/>
<path style="fill:#FCDB5A;" d="M278.516,116.6h106.736c0-16.333-2.778-29.844-6.821-40.849h-87.592
	c-7.529,10.918-12.715,24.287-12.792,40.456L278.516,116.6z"/>
<path style="fill:#FFF3DC;" d="M94.053,313.725l-74.582,62.128c-13.38,11.146-15.2,31.031-4.053,44.412s31.031,15.189,44.412,4.042
	l67.151-80.64L94.053,313.725z"/>
<g>
	<path style="fill:#FFE6B8;" d="M94.293,354.562l21.91,20.419L94.533,395.4l-34.703,28.907c-11.146-13.38-9.327-33.265,4.053-44.412
		L94.293,354.562z"/>
	<path style="fill:#FFE6B8;" d="M233.964,313.725l74.582,62.128c13.38,11.146,15.2,31.031,4.053,44.412
		c-11.146,13.38-31.031,15.189-44.412,4.042l-67.151-80.64L233.964,313.725z"/>
</g>
<path style="fill:#FECF7C;" d="M233.724,354.562l-21.91,20.419l21.671,20.419l34.703,28.907c11.146-13.38,9.327-33.265-4.053-44.412
	L233.724,354.562z"/>
<g>
	<path style="fill:#4D3D36;" d="M135.92,211.503c-4.513,0-8.172,3.658-8.172,8.172v51.106h16.344v-51.106
		C144.092,215.161,140.435,211.503,135.92,211.503z"/>
	<path style="fill:#4D3D36;" d="M192.096,211.503c-4.513,0-8.172,3.658-8.172,8.172v51.106h16.344v-51.106
		C200.268,215.161,196.609,211.503,192.096,211.503z"/>
	<path style="fill:#4D3D36;" d="M155.836,455.295v48.533c0,4.514,3.659,8.172,8.172,8.172s8.172-3.658,8.172-8.172v-48.533H155.836z
		"/>
</g>
<g>
	<path style="fill:#705750;" d="M164.005,243.773l37.264,91.732l32.688-21.792C233.956,275.088,202.641,243.773,164.005,243.773z"/>
	<polygon style="fill:#705750;" points="233.716,354.562 233.487,395.399 179.477,414.455 179.477,340.929 	"/>
	<path style="fill:#705750;" d="M183.552,414.456l-19.525,62.619c1.133-0.349,37.275-11.985,57.138-40.827L183.552,414.456z"/>
</g>
<g>
	<polygon style="fill:#87635C;" points="201.268,332.771 201.268,417.191 94.533,395.399 94.304,354.562 	"/>
	<path style="fill:#87635C;" d="M201.268,313.713l-53.602,21.792l-53.602-21.792c0-38.626,31.315-69.941,69.941-69.941
		C184.587,243.773,201.268,275.077,201.268,313.713z"/>
	<path style="fill:#87635C;" d="M106.856,436.249l43.796-21.792l43.796,21.792c-10.514,28.667-29.604,40.336-30.421,40.827
		C164.005,477.085,127.035,465.548,106.856,436.249z"/>
</g>
<path style="fill:#FEC45E;" d="M233.956,313.713l-0.24,40.849h-32.448l-21.792-20.419l21.792-20.419
	C201.268,313.713,233.956,313.713,233.956,313.713z"/>
<path style="fill:#FCDB5A;" d="M201.268,313.725v40.838H94.304l-0.24-40.849C94.064,313.713,201.268,313.713,201.268,313.725z"/>
<path style="fill:#FEC45E;" d="M233.487,395.399h-32.219l-24.923,20.424l18.102,20.424h26.717
	c7.518-10.918,12.705-24.287,12.792-40.456L233.487,395.399z"/>
<path style="fill:#FCDB5A;" d="M94.533,395.399h106.736c0,16.333-2.778,29.844-6.821,40.849h-87.592
	c-7.529-10.918-12.715-24.287-12.792-40.456L94.533,395.399z"/>
<g>
</g>
<g>
</g>
<g>
</g>
<g>
</g>
<g>
</g>
<g>
</g>
<g>
</g>
<g>
</g>
<g>
</g>
<g>
</g>
<g>
</g>
<g>
</g>
<g>
</g>
<g>
</g>
<g>
</g>
</svg>
