<?xml version="1.0" encoding="iso-8859-1"?>
<!-- Generator: Adobe Illustrator 19.0.0, SVG Export Plug-In . SVG Version: 6.00 Build 0)  -->
<svg version="1.1" id="Layer_1" xmlns="http://www.w3.org/2000/svg" xmlns:xlink="http://www.w3.org/1999/xlink" x="0px" y="0px"
	 viewBox="0 0 511.999 511.999" style="enable-background:new 0 0 511.999 511.999;" xml:space="preserve">
<path style="fill:#9CAC74;" d="M440.527,24.098L204.259,328.937l2.308,2.308l5.656,37.47L440.528,140.41
	C472.648,108.288,472.648,56.219,440.527,24.098z"/>
<path style="fill:#BCC987;" d="M416.656,116.54L204.259,328.937l-30.244-30.244c0,0,194.613-219.662,194.613-236.259
	S353.185,5.328,353.185,5.328c29.329-11.107,63.726-4.845,87.342,18.771C459.465,43.035,448.778,84.418,416.656,116.54z"/>
<path style="fill:#D4ED85;" d="M366.338,106.372L174.017,298.694l-23.87-23.87L342.468,82.502
	c11.084-11.084,11.092-29.059,0.008-40.143L324.207,24.09c8.506-8.506,18.421-14.76,28.979-18.763l13.161,13.161
	c11.737,11.737,18.198,27.347,18.198,43.946S378.074,94.636,366.338,106.372z"/>
<path style="fill:#FEC45E;" d="M192.72,366.671L56.889,502.501c12.659,12.659,33.212,12.667,45.879,0l104.934-104.934
	L192.72,366.671z"/>
<path style="fill:#9CAC74;" d="M228.129,352.808l-7.48-7.48l-28.87,36.317l15.921,15.921l20.425-20.425
	C234.843,370.427,234.845,359.524,228.129,352.808z"/>
<path style="fill:#FCDB5A;" d="M199.738,373.689L86.846,486.58c-12.659,12.659-26.059,19.789-29.958,15.921
	c-12.675-12.691-12.675-33.22-0.008-45.887L161.814,351.68L199.738,373.689z"/>
<path style="fill:#BCC987;" d="M212.214,361.213l-20.434,20.434l-29.966-29.966l20.425-20.425c6.716-6.716,17.61-6.726,24.326-0.01
	l14.084,14.084C222.711,347.389,218.921,354.505,212.214,361.213z"/>
<g>
</g>
<g>
</g>
<g>
</g>
<g>
</g>
<g>
</g>
<g>
</g>
<g>
</g>
<g>
</g>
<g>
</g>
<g>
</g>
<g>
</g>
<g>
</g>
<g>
</g>
<g>
</g>
<g>
</g>
</svg>
