<?xml version="1.0" encoding="iso-8859-1"?>
<!-- Generator: Adobe Illustrator 19.0.0, SVG Export Plug-In . SVG Version: 6.00 Build 0)  -->
<svg version="1.1" id="Layer_1" xmlns="http://www.w3.org/2000/svg" xmlns:xlink="http://www.w3.org/1999/xlink" x="0px" y="0px"
	 viewBox="0 0 512 512" style="enable-background:new 0 0 512 512;" xml:space="preserve">
<polygon style="fill:#5D734F;" points="263.326,7.642 263.326,154.389 233.393,248.012 184.556,202.719 229.567,7.687 "/>
<path style="fill:#7D9062;" d="M233.393,248.012l-23.698,74.111c0-5.514-204.305-58.559-204.305-58.559V7.979l224.177-0.293v195.033
	C229.567,219.295,230.816,234.351,233.393,248.012z"/>
<path style="fill:#9CAC74;" d="M501.22,454.139l-33.758,3.342L196.417,324.485L229.567,154.4c0.113-0.011,0.236-0.011,0.349-0.011
	h33.409v48.331c0,95.176,45.945,117.411,133.052,131.511C462.083,344.864,501.22,387.579,501.22,454.139z"/>
<path style="fill:#BCC987;" d="M467.462,454.139v3.342l-193.075,19.096L98.214,427.842L5.39,304.005v-40.442h150.325
	c11.118,0,20.221-9.092,20.221-20.21V174.61c0-11.005,8.901-20.03,19.872-20.21l34.107-0.011l-0.349,48.331
	c0,56.343,14.494,95.029,45.619,121.766c30.675,26.343,73.784,36.268,115.802,43.076
	C441.727,375.764,467.462,404.897,467.462,454.139z"/>
<g>
	<path style="fill:#FEC45E;" d="M131.522,476.579v19.34c0,4.662,3.779,8.44,8.44,8.44c4.661,0,8.44-3.778,8.44-8.44v-8.086
		L131.522,476.579z"/>
	<path style="fill:#FEC45E;" d="M5.39,487.832v8.086c0,4.662,3.779,8.44,8.44,8.44s8.44-3.778,8.44-8.44v-19.34L5.39,487.832z"/>
	<path style="fill:#FEC45E;" d="M36.923,476.579v19.34c0,4.662,3.779,8.44,8.44,8.44s8.44-3.778,8.44-8.44v-19.34H36.923z"/>
	<path style="fill:#FEC45E;" d="M68.456,476.579v19.34c0,4.662,3.779,8.44,8.44,8.44c4.661,0,8.44-3.778,8.44-8.44v-19.34H68.456z"
		/>
	<path style="fill:#FEC45E;" d="M99.989,476.579v19.34c0,4.662,3.779,8.44,8.44,8.44c4.661,0,8.44-3.778,8.44-8.44v-19.34H99.989z"
		/>
</g>
<path style="fill:#5D734F;" d="M98.214,356.569v60.022H5.39V304.008h40.262C74.684,304.008,98.214,327.537,98.214,356.569z"/>
<g>
	<path style="fill:#FEC45E;" d="M495.121,476.579v19.34c0,4.662,3.779,8.44,8.44,8.44s8.44-3.778,8.44-8.44v-8.086L495.121,476.579z
		"/>
	<path style="fill:#FEC45E;" d="M368.989,487.832v8.086c0,4.662,3.779,8.44,8.44,8.44s8.44-3.778,8.44-8.44v-19.34L368.989,487.832z
		"/>
	<path style="fill:#FEC45E;" d="M400.521,476.579v19.34c0,4.662,3.779,8.44,8.44,8.44s8.44-3.778,8.44-8.44v-19.34H400.521z"/>
	<path style="fill:#FEC45E;" d="M432.055,476.579v19.34c0,4.662,3.779,8.44,8.44,8.44s8.44-3.778,8.44-8.44v-19.34H432.055z"/>
	<path style="fill:#FEC45E;" d="M463.587,476.579v19.34c0,4.662,3.779,8.44,8.44,8.44s8.44-3.778,8.44-8.44v-19.34H463.587z"/>
	<path style="fill:#FEC45E;" d="M274.389,487.832v8.086c0,4.662,3.779,8.44,8.44,8.44s8.44-3.778,8.44-8.44v-19.34L274.389,487.832z
		"/>
	<path style="fill:#FEC45E;" d="M305.923,476.579v19.34c0,4.662,3.779,8.44,8.44,8.44s8.44-3.778,8.44-8.44v-19.34H305.923z"/>
	<path style="fill:#FEC45E;" d="M337.455,476.579v19.34c0,4.662,3.779,8.44,8.44,8.44s8.44-3.778,8.44-8.44v-19.34H337.455z"/>
	<polygon style="fill:#FEC45E;" points="512,454.139 512,487.83 480.47,487.83 457.964,470.455 480.47,454.139 	"/>
</g>
<polygon style="fill:#FCDB5A;" points="480.47,454.139 480.47,487.83 274.387,487.83 148.401,450.291 148.401,487.83 5.39,487.83 
	0,416.589 148.401,416.589 274.387,454.139 "/>
<g>
</g>
<g>
</g>
<g>
</g>
<g>
</g>
<g>
</g>
<g>
</g>
<g>
</g>
<g>
</g>
<g>
</g>
<g>
</g>
<g>
</g>
<g>
</g>
<g>
</g>
<g>
</g>
<g>
</g>
</svg>
