<?xml version="1.0" encoding="iso-8859-1"?>
<!-- Generator: Adobe Illustrator 19.0.0, SVG Export Plug-In . SVG Version: 6.00 Build 0)  -->
<svg version="1.1" id="Layer_1" xmlns="http://www.w3.org/2000/svg" xmlns:xlink="http://www.w3.org/1999/xlink" x="0px" y="0px"
	 viewBox="0 0 512 512" style="enable-background:new 0 0 512 512;" xml:space="preserve">
<path style="fill:#705750;" d="M405.757,116.649c-6.709-19.351-25.097-33.245-46.74-33.278C352.497,36.289,311.193,0,262.328,0
	c-0.332,0,112.509,139.942,112.509,139.942h33.09c0.354-2.314,0.542-4.683,0.542-7.096
	C408.469,127.166,407.506,121.72,405.757,116.649z"/>
<path style="fill:#87635C;" d="M375.258,132.846c0,2.413-0.144,4.782-0.421,7.096H191.399v-9.82
	c0-13.318-10.794-24.111-24.111-24.111s-24.111,10.794-24.111,24.111v9.82H109.19c-2.923-7.185-4.539-15.045-4.539-23.292
	c0-34.573,28.03-62.615,62.615-62.615c3.055,0,6.033,0.299,8.956,0.72C191.72,22.65,224.378,0.376,262.328,0
	c37.961,0.299,69.224,36.488,74.294,83.372c16.905,0.033,31.274,13.927,36.521,33.278
	C374.505,121.72,375.258,127.166,375.258,132.846z"/>
<polygon style="fill:#9CAC74;" points="421.433,139.942 416.539,205.9 361.187,205.9 361.187,139.189 407.927,139.942 "/>
<polygon style="fill:#C8DB86;" points="416.539,205.9 414.093,238.878 358.741,238.878 358.741,205.9 "/>
<polygon style="fill:#9CAC74;" points="339.079,238.878 339.079,503.695 394.432,503.695 414.093,238.878 "/>
<path style="fill:#BCC987;" d="M388.254,139.189l-0.033,0.753l-4.893,65.958H93.924l-4.893-65.958h20.159l33.986-8.303v-1.517
	c0-13.318,10.794-24.111,24.111-24.111s24.111,10.794,24.111,24.111v1.517L388.254,139.189z"/>
<polygon style="fill:#D4ED85;" points="383.328,205.9 380.881,238.878 96.371,238.878 93.924,205.9 "/>
<polygon style="fill:#BCC987;" points="380.881,238.878 374.826,320.457 361.22,503.695 116.032,503.695 96.371,238.878 "/>
<path style="fill:#7D9062;" d="M394.353,512H116.109c-4.585,0-8.303-3.716-8.303-8.303c0-4.587,3.717-8.303,8.303-8.303h278.244
	c4.585,0,8.303,3.716,8.303,8.303C402.656,508.284,398.938,512,394.353,512z"/>
<g>
	<path style="fill:#9CAC74;" d="M415.174,247.178H95.289c-4.585,0-8.303-3.716-8.303-8.303c0-4.587,3.717-8.303,8.303-8.303h319.885
		c4.585,0,8.303,3.716,8.303,8.303C423.477,243.462,419.76,247.178,415.174,247.178z"/>
	<path style="fill:#9CAC74;" d="M417.622,214.2H92.84c-4.585,0-8.303-3.716-8.303-8.303c0-4.587,3.717-8.303,8.303-8.303h324.782
		c4.585,0,8.303,3.716,8.303,8.303C425.925,210.484,422.207,214.2,417.622,214.2z"/>
</g>
<g>
	<path style="fill:#7D9062;" d="M421.357,131.638H191.396v16.606h229.961c4.585,0,8.303-3.716,8.303-8.303
		C429.66,135.354,425.943,131.638,421.357,131.638z"/>
	<path style="fill:#7D9062;" d="M89.105,131.638c-4.585,0-8.303,3.716-8.303,8.303c0,4.586,3.717,8.303,8.303,8.303h54.076v-16.606
		H89.105z"/>
</g>
<path style="fill:#4D3D36;" d="M396.934,343.045l-23.376-0.001c-118.314,0-214.571-96.255-214.571-214.57
	c0-4.586,3.717-8.303,8.303-8.303s8.303,3.716,8.303,8.303c0,109.158,88.807,197.964,197.965,197.964l23.376,0.001
	c4.585,0,8.303,3.717,8.303,8.303C405.236,339.327,401.518,343.045,396.934,343.045z"/>
<g>
	<circle style="fill:#9CAC74;" cx="212.121" cy="445.453" r="8.303"/>
	<circle style="fill:#9CAC74;" cx="167.839" cy="423.312" r="8.303"/>
</g>
<path style="fill:#D4ED85;" d="M416.906,320.454h-29.06c-7.893,0-14.292,6.399-14.292,14.281c0,7.893,6.399,14.292,14.292,14.292
	h29.06c7.893,0,14.292-6.399,14.292-14.292C431.198,326.853,424.799,320.454,416.906,320.454z"/>
<g>
</g>
<g>
</g>
<g>
</g>
<g>
</g>
<g>
</g>
<g>
</g>
<g>
</g>
<g>
</g>
<g>
</g>
<g>
</g>
<g>
</g>
<g>
</g>
<g>
</g>
<g>
</g>
<g>
</g>
</svg>
