<?xml version="1.0" encoding="iso-8859-1"?>
<!-- Generator: Adobe Illustrator 19.0.0, SVG Export Plug-In . SVG Version: 6.00 Build 0)  -->
<svg version="1.1" id="Layer_1" xmlns="http://www.w3.org/2000/svg" xmlns:xlink="http://www.w3.org/1999/xlink" x="0px" y="0px"
	 viewBox="0 0 512.004 512.004" style="enable-background:new 0 0 512.004 512.004;" xml:space="preserve">
<polygon style="fill:#9CAC74;" points="204.53,362.366 102.617,464.279 38.397,447.8 203.965,329.974 "/>
<polygon style="fill:#C8DB86;" points="102.617,464.279 54.891,512.004 38.413,495.526 46.362,455.749 86.138,447.8 "/>
<rect x="9.329" y="425.302" transform="matrix(-0.7071 0.7071 -0.7071 -0.7071 393.4736 741.9382)" style="fill:#D4ED85;" width="67.494" height="54.317"/>
<polygon style="fill:#9CAC74;" points="489.516,44.423 457.688,76.251 430.81,81.2 435.759,54.322 467.586,22.493 "/>
<polygon style="fill:#BCC987;" points="203.965,329.974 86.138,447.8 47.73,409.392 149.643,307.48 182.036,308.045 435.759,54.322 
	457.688,76.251 "/>
<rect x="453.982" y="14.949" transform="matrix(-0.7071 -0.7071 0.7071 -0.7071 800.5151 392.4853)" style="fill:#5D734F;" width="55.125" height="31.002"/>
<g>
</g>
<g>
</g>
<g>
</g>
<g>
</g>
<g>
</g>
<g>
</g>
<g>
</g>
<g>
</g>
<g>
</g>
<g>
</g>
<g>
</g>
<g>
</g>
<g>
</g>
<g>
</g>
<g>
</g>
</svg>
