<?xml version="1.0" encoding="iso-8859-1"?>
<!-- Generator: Adobe Illustrator 19.0.0, SVG Export Plug-In . SVG Version: 6.00 Build 0)  -->
<svg version="1.1" id="Layer_1" xmlns="http://www.w3.org/2000/svg" xmlns:xlink="http://www.w3.org/1999/xlink" x="0px" y="0px"
	 viewBox="0 0 512 512" style="enable-background:new 0 0 512 512;" xml:space="preserve">
<path style="fill:#FEC45E;" d="M338.105,88.698l25.84,102.128v0.272h32.027v-0.272c0.773-4.314,1.176-8.748,1.176-13.268
	C397.149,129.636,368.749,88.698,338.105,88.698z"/>
<path style="fill:#FCDB5A;" d="M364.468,177.557c0,4.521-0.185,8.955-0.523,13.268v0.272h-83.696v-0.272
	c-0.763-4.314-1.177-8.748-1.177-13.268c0-23.922,7.07-46.091,17.964-62.301c10.937-16.286,25.72-26.559,41.069-26.559
	C351.788,88.698,364.468,129.636,364.468,177.557z"/>
<g>
	<path style="fill:#7D9062;" d="M344.249,381.834L256,349.153l-88.249,32.681c-21.82,8.279-42.169,19.554-60.558,33.302h297.614
		C386.418,401.388,366.069,390.113,344.249,381.834z"/>
	<rect x="18.606" y="191.096" style="fill:#7D9062;" width="474.787" height="32.681"/>
</g>
<path style="fill:#9CAC74;" d="M460.713,223.779l-128.61,158.055h12.146c70.896-26.907,126.29-85.264,149.145-158.055H460.713z"/>
<path style="fill:#BCC987;" d="M18.606,223.779h442.107c-19.707,72.791-67.475,131.148-128.61,158.055H167.751
	C96.855,354.927,41.461,296.57,18.606,223.779z"/>
<path style="fill:#FEC45E;" d="M173.895,88.97l25.84,102.128v0.272h32.027v-0.272c0.773-4.314,1.177-8.748,1.177-13.268
	C232.938,129.909,204.539,88.97,173.895,88.97z"/>
<path style="fill:#FCDB5A;" d="M200.257,177.83c0,4.521-0.185,8.955-0.523,13.268v0.272h-83.696v-0.272
	c-0.763-4.314-1.177-8.748-1.177-13.268c0-23.922,7.07-46.091,17.964-62.301c10.937-16.286,25.72-26.559,41.069-26.559
	C187.577,88.97,200.257,129.909,200.257,177.83z"/>
<path style="fill:#FFE6B8;" d="M420.243,88.698l25.84,102.128v0.272h32.027v-0.272c0.773-4.314,1.176-8.748,1.176-13.268
	C479.286,129.636,450.887,88.698,420.243,88.698z"/>
<path style="fill:#FFF3DC;" d="M446.606,177.557c0,4.521-0.185,8.955-0.523,13.268v0.272h-83.696v-0.272
	c-0.763-4.314-1.176-8.748-1.176-13.268c0-23.922,7.07-46.091,17.964-62.301c10.937-16.286,25.72-26.559,41.069-26.559
	C433.925,88.698,446.606,129.636,446.606,177.557z"/>
<path style="fill:#FFE6B8;" d="M256.033,88.97l25.84,102.128v0.272H313.9v-0.272c0.773-4.314,1.176-8.748,1.176-13.268
	C315.076,129.909,286.676,88.97,256.033,88.97z"/>
<path style="fill:#FFF3DC;" d="M282.395,177.83c0,4.521-0.185,8.955-0.523,13.268v0.272h-83.696v-0.272
	c-0.763-4.314-1.177-8.748-1.177-13.268c0-23.922,7.07-46.091,17.964-62.301c10.937-16.286,25.72-26.559,41.069-26.559
	C269.715,88.97,282.395,129.909,282.395,177.83z"/>
<path style="fill:#FFE6B8;" d="M91.746,88.97l25.84,102.128v0.272h32.027v-0.272c0.773-4.314,1.177-8.748,1.177-13.268
	C150.789,129.909,122.39,88.97,91.746,88.97z"/>
<path style="fill:#FFF3DC;" d="M118.109,177.83c0,4.521-0.185,8.955-0.523,13.268v0.272H33.89v-0.272
	c-0.763-4.314-1.177-8.748-1.177-13.268c0-23.922,7.07-46.091,17.964-62.301C61.614,99.243,76.397,88.97,91.746,88.97
	C105.428,88.97,118.109,129.909,118.109,177.83z"/>
<g>
	<path style="fill:#9CAC74;" d="M503.83,199.27H8.17c-4.513,0-8.17-3.657-8.17-8.17s3.657-8.17,8.17-8.17h495.66
		c4.513,0,8.17,3.657,8.17,8.17S508.343,199.27,503.83,199.27z"/>
	<path style="fill:#9CAC74;" d="M503.83,231.951H8.17c-4.513,0-8.17-3.657-8.17-8.17s3.657-8.17,8.17-8.17h495.66
		c4.513,0,8.17,3.657,8.17,8.17S508.343,231.951,503.83,231.951z"/>
	<path style="fill:#9CAC74;" d="M415.699,423.302H96.301c-4.513,0-8.17-3.657-8.17-8.17c0-4.513,3.657-8.17,8.17-8.17h319.398
		c4.513,0,8.17,3.657,8.17,8.17C423.868,419.645,420.211,423.302,415.699,423.302z"/>
</g>
<g>
</g>
<g>
</g>
<g>
</g>
<g>
</g>
<g>
</g>
<g>
</g>
<g>
</g>
<g>
</g>
<g>
</g>
<g>
</g>
<g>
</g>
<g>
</g>
<g>
</g>
<g>
</g>
<g>
</g>
</svg>
