<?xml version="1.0" encoding="iso-8859-1"?>
<!-- Generator: Adobe Illustrator 19.0.0, SVG Export Plug-In . SVG Version: 6.00 Build 0)  -->
<svg version="1.1" id="Layer_1" xmlns="http://www.w3.org/2000/svg" xmlns:xlink="http://www.w3.org/1999/xlink" x="0px" y="0px"
	 viewBox="0 0 512 512" style="enable-background:new 0 0 512 512;" xml:space="preserve">
<path style="fill:#FCDB5A;" d="M511.999,262.358v84.317c0-2.1-56.264,29.55-56.264,29.55l22.505-113.349
	C488.989,262.538,500.218,262.358,511.999,262.358z"/>
<path style="fill:#FFE6B8;" d="M478.241,262.876v90.843c-101.95,16.035-222.185-7.044-222.185-7.044v-42.141
	C314.165,285.393,372.229,266.241,478.241,262.876z"/>
<path style="fill:#9CAC74;" d="M511.999,346.675v62.408l-56.264,25.679l22.505-88.604
	C488.989,346.495,500.218,346.675,511.999,346.675z"/>
<path style="fill:#BCC987;" d="M478.241,346.157v66.098c-185.4,12.704-374.817-49.951-478.241-87.479v-62.419
	c57.985,0,102.827,4.321,140.49,11.005c48.128,8.563,84.519,20.975,121.597,33.151c24.216,7.967,48.713,15.833,76.957,22.46
	C376.303,337.718,420.053,344.312,478.241,346.157z"/>
<path style="fill:#C8DB86;" d="M511.999,409.083v62.408l-56.264,26.759l22.505-89.684
	C488.989,408.903,500.218,409.083,511.999,409.083z"/>
<path style="fill:#D4ED85;" d="M478.241,408.565v67.179C325.519,489.54,184.005,429.045,0.001,387.185v-62.408
	C244.218,324.777,255.46,401.498,478.241,408.565z"/>
<path style="fill:#9CAC74;" d="M511.999,471.49V512h-33.758l-22.505-20.514l22.505-20.514
	C488.989,471.31,500.218,471.49,511.999,471.49z"/>
<path style="fill:#BCC987;" d="M478.241,470.973V512H322.2c0,0-221.487-4.535-322.199-62.408v-62.408
	C244.218,387.185,255.46,463.906,478.241,470.973z"/>
<path style="fill:#D4ED85;" d="M322.2,511.999H0.001v-62.408C170.558,449.591,227.486,487.02,322.2,511.999z"/>
<circle style="fill:#FFE6B8;" cx="256" cy="102.197" r="102.197"/>
<path style="fill:#FE9837;" d="M256,33.759v136.867c37.798,0,68.439-30.641,68.439-68.428C324.44,64.4,293.799,33.759,256,33.759z"
	/>
<path style="fill:#FFAD61;" d="M256,33.759c19.152,0,34.681,30.641,34.681,68.439c0,37.787-15.529,68.428-34.681,68.428
	c-37.798,0-68.439-30.641-68.439-68.428C187.561,64.4,218.202,33.759,256,33.759z"/>
<g>
</g>
<g>
</g>
<g>
</g>
<g>
</g>
<g>
</g>
<g>
</g>
<g>
</g>
<g>
</g>
<g>
</g>
<g>
</g>
<g>
</g>
<g>
</g>
<g>
</g>
<g>
</g>
<g>
</g>
</svg>
