<?xml version="1.0" encoding="iso-8859-1"?>
<!-- Generator: Adobe Illustrator 19.0.0, SVG Export Plug-In . SVG Version: 6.00 Build 0)  -->
<svg version="1.1" id="Layer_1" xmlns="http://www.w3.org/2000/svg" xmlns:xlink="http://www.w3.org/1999/xlink" x="0px" y="0px"
	 viewBox="0 0 511.999 511.999" style="enable-background:new 0 0 511.999 511.999;" xml:space="preserve">
<path style="fill:#FEC45E;" d="M241.054,389.484l-130.048,90.438l23.87,23.87c10.941,10.941,28.669,10.941,39.61,0l92.149-92.149
	L241.054,389.484z"/>
<path style="fill:#FCDB5A;" d="M241.054,389.484l-90.438,90.438c-10.941,10.941-28.669,10.941-39.61,0l-18.349-18.349
	l-79.871-79.871c-10.933-10.933-10.941-28.669,0-39.61l80.572-80.555L241.054,389.484z"/>
<path style="fill:#7D9062;" d="M469.591,244.558c-16.828,16.828-39.697,39.68-61.77,61.754l-48.521-15.134
	c0,0,92.65-92.634,97.177-97.162C456.629,193.865,469.591,244.558,469.591,244.558z"/>
<path style="fill:#9CAC74;" d="M445.721,220.688c-16.828,16.828-39.697,39.68-61.77,61.754l-8.737,8.737l-56.477-26.21
	l109.502-61.762l36.633-1.671c-0.143,0.143-0.287,0.287-0.438,0.438C459.907,206.5,453.455,212.954,445.721,220.688z"/>
<path style="fill:#FEC45E;" d="M495.427,177.363c-3.954-3.954-8.768-6.54-13.845-7.75l-35.862,51.075l23.87,23.87
	c15.46-15.46,25.836-25.836,25.836-25.836C506.837,207.296,506.838,188.789,495.427,177.363z"/>
<path style="fill:#FCDB5A;" d="M464.435,201.973c-4.527,4.527-10.98,10.98-18.714,18.714l-33.395-33.395l41.75-9.923
	c7.456-7.456,17.95-10.042,27.507-7.758c0.931,8.187-2.57,17.768-10.026,25.239C471.556,194.852,468.962,197.445,464.435,201.973z"
	/>
<polygon style="fill:#7D9062;" points="350.564,280.881 293.306,223.624 431.668,117.09 474.977,115.122 473.004,158.441 "/>
<path style="fill:#FCDB5A;" d="M498.848,91.25c11.422,11.422,11.422,29.932,0,41.354l-25.836,25.836l-57.257-57.267l41.75-9.923
	C468.916,79.84,487.427,79.84,498.848,91.25z"/>
<polygon style="fill:#7D9062;" points="348.972,34.409 392.281,32.437 390.309,75.745 283.782,214.099 210.818,141.134 
	280.082,103.524 "/>
<path style="fill:#FCDB5A;" d="M416.152,8.566c11.422,11.41,11.422,29.921,0,41.343l-9.923,41.75l-57.256-57.256L374.81,8.566
	C386.231-2.855,404.742-2.855,416.152,8.566z"/>
<g>
	<path style="fill:#9CAC74;" d="M309.22,239.537l-41.352-41.352L419.502,46.552l43.311-1.962l-1.967,43.306
		C460.847,87.911,309.22,239.537,309.22,239.537z"/>
	<path style="fill:#9CAC74;" d="M383.951,282.441l-236.144,99.525c34.159,27.539,77.834,37.429,118.828,29.679
		c27.897-5.252,54.544-18.691,76.124-40.27l65.063-65.063L383.951,282.441z"/>
</g>
<path style="fill:#BCC987;" d="M383.951,282.441l-65.063,65.063c-21.579,21.579-46.699,36.545-71.978,44.416
	c-37.159,11.585-72.066,10.463-99.103-9.954l23.433-217.549l71.405-23.282L383.951,282.441z"/>
<path style="fill:#9CAC74;" d="M195.11,188.287c40.421,40.755,40.151,106.559-0.604,146.98l-46.699,46.699
	c-4.073-3.278-8.005-6.811-11.784-10.591c-30.189-30.189-44.408-70.299-42.665-109.837c1.536-35.226,15.763-69.981,42.665-96.883
	l76.76-76.76l43.306-1.964l-1.962,43.307L195.11,188.287z"/>
<g>
	<path style="fill:#FCDB5A;" d="M486.684,62.072c11.422-11.422,11.422-29.932,0-41.354c-11.41-11.41-29.921-11.41-41.342,0
		l-25.836,25.836l0.214,0.214c0,0,41.129,41.129,41.14,41.14L486.684,62.072z"/>
	<path style="fill:#FCDB5A;" d="M279.96,62.062c11.422,11.41,11.422,29.921,0,41.343l-25.825,25.836
		c-0.011,0-41.354-41.343-41.354-41.343c15.034-15.034,25.836-25.836,25.836-25.836C250.039,50.639,268.55,50.639,279.96,62.062z"/>
</g>
<g>
</g>
<g>
</g>
<g>
</g>
<g>
</g>
<g>
</g>
<g>
</g>
<g>
</g>
<g>
</g>
<g>
</g>
<g>
</g>
<g>
</g>
<g>
</g>
<g>
</g>
<g>
</g>
<g>
</g>
</svg>
