<?xml version="1.0" encoding="iso-8859-1"?>
<!-- Generator: Adobe Illustrator 19.0.0, SVG Export Plug-In . SVG Version: 6.00 Build 0)  -->
<svg version="1.1" id="Layer_1" xmlns="http://www.w3.org/2000/svg" xmlns:xlink="http://www.w3.org/1999/xlink" x="0px" y="0px"
	 viewBox="0 0 512 512" style="enable-background:new 0 0 512 512;" xml:space="preserve">
<polygon style="fill:#C8DB86;" points="503.83,172.381 435.647,172.381 283.648,59.589 351.831,59.589 "/>
<polygon style="fill:#D4ED85;" points="305.435,59.589 457.434,172.381 312.178,172.381 160.169,59.589 "/>
<rect x="249.54" y="172.381" style="fill:#FFE6B8;" width="62.638" height="280.031"/>
<rect x="8.17" y="172.381" style="fill:#FFF3DC;" width="263.157" height="280.031"/>
<rect x="104.001" y="172.381" style="fill:#D4ED85;" width="112.357" height="280.042"/>
<rect x="430.298" y="172.381" style="fill:#BCC987;" width="73.532" height="280.031"/>
<rect x="312.178" y="172.381" style="fill:#C8DB86;" width="150.8" height="280.031"/>
<polygon style="fill:#FFF3DC;" points="312.178,172.381 136.976,172.381 136.976,76.801 160.169,59.589 "/>
<polygon style="fill:#FFFFFF;" points="265.782,172.381 8.17,172.381 136.976,76.801 "/>
<path style="fill:#9CAC74;" d="M208.178,172.377v85.176h-96.011v-85.176h-16.34v85.176h-2.723c-4.512,0-8.17,3.657-8.17,8.17
	c0,4.513,3.658,8.17,8.17,8.17h2.723v77.005h-2.723c-4.512,0-8.17,3.657-8.17,8.17s3.658,8.17,8.17,8.17h2.723v85.176h16.34v-85.176
	h96.011v85.176h16.34V172.377H208.178z M112.167,350.899v-77.005h96.011v77.005H112.167z"/>
<g>
	<path style="fill:#7D9062;" d="M183.667,332.34c-4.512,0-8.17-3.657-8.17-8.17v-23.545c0-4.513,3.658-8.17,8.17-8.17
		s8.17,3.657,8.17,8.17v23.545C191.838,328.683,188.18,332.34,183.667,332.34z"/>
	<path style="fill:#7D9062;" d="M508.698,165.817L356.696,53.024c-1.409-1.046-3.116-1.61-4.869-1.61H160.173
		c-1.754,0-3.461,0.564-4.868,1.61L3.302,165.817C1.224,167.357,0,169.791,0,172.377v280.039c0,4.513,3.658,8.17,8.17,8.17h495.66
		c4.513,0,8.17-3.657,8.17-8.17V172.377C512,169.791,510.776,167.357,508.698,165.817z M253.301,67.754l129.98,96.452h-68.405
		L184.893,67.754C184.893,67.754,253.301,67.754,253.301,67.754z M160.173,69.758l127.282,94.449H32.892L160.173,69.758z
		 M16.34,180.547h287.664v263.698H16.34V180.547z M399.832,444.247h-79.486v-263.7h79.486V444.247z M280.721,67.754h68.405
		l129.982,96.452h-68.406L280.721,67.754z M495.66,444.247h-79.487v-263.7h79.487V444.247z"/>
</g>
<g>
</g>
<g>
</g>
<g>
</g>
<g>
</g>
<g>
</g>
<g>
</g>
<g>
</g>
<g>
</g>
<g>
</g>
<g>
</g>
<g>
</g>
<g>
</g>
<g>
</g>
<g>
</g>
<g>
</g>
</svg>
