<?xml version="1.0" encoding="iso-8859-1"?>
<!-- Generator: Adobe Illustrator 19.0.0, SVG Export Plug-In . SVG Version: 6.00 Build 0)  -->
<svg version="1.1" id="Layer_1" xmlns="http://www.w3.org/2000/svg" xmlns:xlink="http://www.w3.org/1999/xlink" x="0px" y="0px"
	 viewBox="0 0 512.001 512.001" style="enable-background:new 0 0 512.001 512.001;" xml:space="preserve">
<path style="fill:#5D734F;" d="M119.769,381.652l-5.967-5.967c-23.293-23.293-23.293-61.195,0-84.487l5.967-5.967l11.936,11.936
	l-5.967,5.967c-16.712,16.712-16.712,43.905,0,60.617l5.967,5.967L119.769,381.652z"/>
<path style="fill:#C8DB86;" d="M262.056,398.153l-23.871,23.871c0,0-65.136-17.378-65.732-17.958l65.732-29.783L262.056,398.153z"/>
<path style="fill:#D4ED85;" d="M238.184,422.023l-89.978,89.978l-23.871-23.871l21.118-68.859c0,0,68.271-21.707,68.859-21.118
	L238.184,422.023z"/>
<path style="fill:#FCDB5A;" d="M412.392,26.469c6.055-6.055,6.055-15.872,0-21.927c-6.055-6.055-15.872-6.055-21.927,0
	L201.774,193.233l-4.95,26.877l26.88-4.948L412.392,26.469z"/>
<rect x="173.967" y="204.749" transform="matrix(-0.7071 0.7071 -0.7071 -0.7071 491.4894 236.9292)" style="fill:#FEC45E;" width="45.416" height="31.012"/>
<path style="fill:#BCC987;" d="M174.943,214.141l-55.174,55.174c-7.69,7.69-7.69,20.159,0,27.85c7.69,7.69,20.159,7.69,27.85,0
	l55.174-55.174L174.943,214.141z"/>
<path style="fill:#9CAC74;" d="M229.933,366.03c-29.401-29.401-78.726-27.754-110.164,3.684l94.544,28.438l23.871-23.871
	L229.933,366.03z"/>
<path style="fill:#BCC987;" d="M214.313,398.153l-89.978,89.978l-8.252-8.252c-29.401-29.401-27.754-78.726,3.684-110.164
	c18.253-18.253,56.892-9.214,86.293,20.186L214.313,398.153z"/>
<g>
</g>
<g>
</g>
<g>
</g>
<g>
</g>
<g>
</g>
<g>
</g>
<g>
</g>
<g>
</g>
<g>
</g>
<g>
</g>
<g>
</g>
<g>
</g>
<g>
</g>
<g>
</g>
<g>
</g>
</svg>
