<?xml version="1.0" encoding="iso-8859-1"?>
<!-- Generator: Adobe Illustrator 19.0.0, SVG Export Plug-In . SVG Version: 6.00 Build 0)  -->
<svg version="1.1" id="Layer_1" xmlns="http://www.w3.org/2000/svg" xmlns:xlink="http://www.w3.org/1999/xlink" x="0px" y="0px"
	 viewBox="0 0 512 512" style="enable-background:new 0 0 512 512;" xml:space="preserve">
<polygon style="fill:#FD830C;" points="364.038,49.355 364.038,119.279 307.774,119.279 307.774,38.102 "/>
<polygon style="fill:#FE9837;" points="330.279,38.102 330.279,119.279 147.962,119.279 147.962,49.355 "/>
<g>
	<path style="fill:#E86F22;" d="M364.003,84.988H147.997c-4.662,0-8.44-3.778-8.44-8.44s3.778-8.44,8.44-8.44h216.007
		c4.662,0,8.44,3.778,8.44,8.44S368.665,84.988,364.003,84.988z"/>
	<path style="fill:#E86F22;" d="M348.07,103.739h-19.771L359.998,512h28.447c13.672,0,24.756-11.084,24.756-24.756V168.87
		C413.201,132.895,384.034,103.739,348.07,103.739z"/>
</g>
<path style="fill:#FD830C;" d="M328.299,103.739H163.93c-35.964,0-65.131,29.156-65.131,65.131v318.374
	c0,13.672,11.084,24.756,24.756,24.756h236.443c10.735,0,19.445-11.084,19.445-24.756V168.87
	C379.443,132.895,356.543,103.739,328.299,103.739z"/>
<path style="fill:#C8DB86;" d="M364.038,24.756v24.599h-33.758V24.756C330.279,11.084,319.195,0,305.523,0h33.758
	C352.954,0,364.038,11.084,364.038,24.756z"/>
<path style="fill:#D4ED85;" d="M330.279,24.756v24.599H147.962V24.756C147.962,11.084,159.046,0,172.718,0h132.805
	C319.195,0,330.279,11.084,330.279,24.756z"/>
<polygon style="fill:#FFF3DC;" points="345.684,179.369 345.684,396.547 311.926,396.547 278.168,287.958 311.926,179.369 "/>
<rect x="166.316" y="179.369" style="fill:#FFFFFF;" width="145.611" height="217.178"/>
<path style="fill:#FFE6B8;" d="M316.278,282.647l-27.589-22.769h-65.374l-27.589,22.769c-6.253,5.209-7.099,14.5-1.892,20.753
	c5.208,6.253,14.5,7.099,20.753,1.89l8.952-7.242h64.927l8.952,7.242c6.253,5.209,15.545,4.362,20.753-1.89
	C323.379,297.148,322.53,287.854,316.278,282.647z"/>
<path style="fill:#4D3D36;" d="M247.56,324.965v23.749c0,4.662,3.778,8.44,8.44,8.44c4.662,0,8.44-3.778,8.44-8.44v-23.749H247.56z"
	/>
<path style="fill:#FCDB5A;" d="M256,227.191c-18.053,0-32.687,14.634-32.687,32.687l11.355,17.507l-11.131,20.663
	c0,27.968,32.463,38.17,32.463,38.17s32.463-10.202,32.463-38.17l-11.14-20.663l11.364-17.507
	C288.687,241.825,274.053,227.191,256,227.191z"/>
<polygon style="fill:#87635C;" points="288.463,298.048 223.537,298.048 223.313,259.878 288.687,259.878 "/>
<g>
</g>
<g>
</g>
<g>
</g>
<g>
</g>
<g>
</g>
<g>
</g>
<g>
</g>
<g>
</g>
<g>
</g>
<g>
</g>
<g>
</g>
<g>
</g>
<g>
</g>
<g>
</g>
<g>
</g>
</svg>
