<?xml version="1.0" encoding="iso-8859-1"?>
<!-- Generator: Adobe Illustrator 19.0.0, SVG Export Plug-In . SVG Version: 6.00 Build 0)  -->
<svg version="1.1" id="Layer_1" xmlns="http://www.w3.org/2000/svg" xmlns:xlink="http://www.w3.org/1999/xlink" x="0px" y="0px"
	 viewBox="0 0 512 512" style="enable-background:new 0 0 512 512;" xml:space="preserve">
<path style="fill:#D4ED85;" d="M471.524,422.835C497.225,367.077,512,308.709,512,260.311C512,119.202,397.098,4.413,256,4.413
	S0,119.202,0,260.311c0,48.398,14.775,106.766,40.476,162.523c-32.865,28.471-2.813,71.928,31.812,63.15
	c0.011,0,49.186-21.932,49.186-21.932c6.594-3.815,8.856-23.53,5.041-30.135c-33.229-57.457-53.878-123.983-53.878-173.607
	C72.636,153.05,148.694,77.049,256,77.049s183.364,76.001,183.364,183.262c0,49.625-20.649,116.151-53.878,173.607
	c-3.815,6.605-1.553,26.32,5.041,30.135c0,0,49.174,21.932,49.186,21.932C474.337,494.762,504.389,451.305,471.524,422.835z"/>
<g>
	<path style="fill:#BCC987;" d="M66.783,269.092l-27.434,3.305c-4.628,0.557-7.928,4.76-7.371,9.388
		c0.517,4.286,4.158,7.431,8.369,7.431c0.338,0,0.679-0.021,1.019-0.062l27.434-3.305L66.783,269.092z"/>
	<path style="fill:#BCC987;" d="M53.972,183.451c-4.293-1.809-9.245,0.2-11.057,4.494c-1.812,4.294,0.2,9.245,4.494,11.057
		l25.547,10.78l6.563-15.551L53.972,183.451z"/>
	<path style="fill:#BCC987;" d="M100.36,108.708c-3.689-2.849-8.986-2.171-11.839,1.52c-2.849,3.688-2.17,8.988,1.52,11.839
		l21.935,16.947l10.319-13.358L100.36,108.708z"/>
	<path style="fill:#BCC987;" d="M472.651,272.397l-27.434-3.305l-2.018,16.759l27.434,3.305c0.343,0.04,0.682,0.062,1.02,0.062
		c4.21,0,7.852-3.147,8.369-7.431C480.579,277.157,477.281,272.954,472.651,272.397z"/>
	<path style="fill:#BCC987;" d="M469.085,187.945c-1.813-4.294-6.766-6.305-11.057-4.494l-25.547,10.78l6.563,15.551l25.547-10.78
		C468.886,197.19,470.898,192.239,469.085,187.945z"/>
	<path style="fill:#BCC987;" d="M423.479,110.227c-2.85-3.69-8.15-4.366-11.839-1.52l-21.935,16.947l10.319,13.358l21.935-16.947
		C425.649,119.215,426.328,113.915,423.479,110.227z"/>
	<path style="fill:#BCC987;" d="M256,35.355c-4.662,0-8.44,3.778-8.44,8.44v27.631h16.879V43.795
		C264.44,39.134,260.662,35.355,256,35.355z"/>
</g>
<path style="fill:#C8DB86;" d="M471.524,422.835c11.388,9.374,14.719,26.208,7.224,39.632c-1.508,2.701-3.353,5.075-5.458,7.1
	c-8.89,8.597-22.269,10.926-33.578,5.165l-37.933-21.932c-6.594-3.815-8.856-12.277-5.041-18.882
	c33.229-57.457,53.878-123.983,53.878-173.607c0-107.261-87.31-194.515-194.616-194.515S61.384,153.05,61.384,260.311
	c0,49.625,20.649,116.151,53.878,173.607c3.815,6.605,1.553,15.067-5.041,18.882l-37.933,21.932
	c-11.309,5.761-24.689,3.432-33.578-5.165c-2.104-2.025-3.95-4.4-5.458-7.1c-7.494-13.425-4.164-30.259,7.224-39.632
	c-18.128,14.437-23.439,40.341-11.5,61.001c2.408,4.164,5.345,7.821,8.687,10.926c14.91,13.953,37.742,17.172,56.32,6.425
	l33.139-19.163c22.742-13.154,30.517-42.254,17.363-65.007c-29.966-51.819-49.343-113.326-49.343-156.706
	c0-88.638,72.22-160.757,160.858-160.757s160.858,72.119,160.858,160.757c0,43.379-19.377,104.887-49.343,156.706
	c-13.154,22.753-5.379,51.853,17.363,65.007l33.139,19.163c18.578,10.746,41.41,7.528,56.32-6.425
	c3.342-3.106,6.279-6.763,8.687-10.926C494.963,463.176,489.652,437.272,471.524,422.835z"/>
<g>
</g>
<g>
</g>
<g>
</g>
<g>
</g>
<g>
</g>
<g>
</g>
<g>
</g>
<g>
</g>
<g>
</g>
<g>
</g>
<g>
</g>
<g>
</g>
<g>
</g>
<g>
</g>
<g>
</g>
</svg>
