<?xml version="1.0" encoding="iso-8859-1"?>
<!-- Generator: Adobe Illustrator 19.0.0, SVG Export Plug-In . SVG Version: 6.00 Build 0)  -->
<svg version="1.1" id="Layer_1" xmlns="http://www.w3.org/2000/svg" xmlns:xlink="http://www.w3.org/1999/xlink" x="0px" y="0px"
	 viewBox="0 0 512 512" style="enable-background:new 0 0 512 512;" xml:space="preserve">
<g>
	<path style="fill:#FEC45E;" d="M192.534,187.951l-44.281,154.054c-12.211-8.557-23.369-18.521-33.211-29.668L81.831,187.951
		L192.534,187.951L192.534,187.951z"/>
	<polygon style="fill:#FEC45E;" points="443.951,304.61 443.951,394.179 396.958,394.179 396.958,358.411 421.855,304.61 	"/>
</g>
<path style="fill:#FFAD61;" d="M443.951,187.951V304.61c-6.476,10.45-13.86,20.391-22.096,29.713
	c-7.705,8.723-16.041,16.771-24.897,24.089v-170.46H443.951z"/>
<path style="fill:#FCDB5A;" d="M256,0C152.117,0,68.049,84.057,68.049,187.951v206.228h46.993V187.951l33.211,90.931v63.123
	c30.499,21.355,67.639,33.886,107.747,33.886c56.159,0,106.54-24.565,140.958-63.554c29.259-33.133,46.993-76.662,46.993-124.386
	C443.951,84.057,359.883,0,256,0z M256,246.071c-32.127,0-58.119-25.992-58.119-58.119S223.873,129.82,256,129.82
	s58.119,26.005,58.119,58.132S288.127,246.071,256,246.071z"/>
<path style="fill:#FFAD61;" d="M256,46.982c77.913,0,140.958,63.056,140.958,140.969S333.913,328.909,256,328.909
	s-140.958-63.045-140.958-140.958S178.087,46.982,256,46.982z M339.581,187.95c0-46.196-37.384-83.581-83.581-83.581
	s-83.581,37.384-83.581,83.581s37.384,83.571,83.581,83.571S339.581,234.146,339.581,187.95z"/>
<path style="fill:#FEC45E;" d="M256,93.976c51.942,0,93.976,42.034,93.976,93.976S307.942,281.916,256,281.916
	s-93.976-42.023-93.976-93.964S204.058,93.976,256,93.976z M302.982,187.951c0-25.971-21.011-46.993-46.982-46.993
	s-46.982,21.022-46.982,46.993s21.011,46.982,46.982,46.982S302.982,213.922,302.982,187.951z"/>
<polygon style="fill:#FFAD61;" points="118.363,394.179 107.548,503.697 83.271,503.697 83.271,394.179 "/>
<polygon style="fill:#FEC45E;" points="96.223,394.179 94.341,503.697 75.544,503.697 64.728,394.179 "/>
<g>
	<path style="fill:#FE9837;" d="M117.17,402.481H65.923c-4.585,0-8.303-3.717-8.303-8.303s3.717-8.303,8.303-8.303h51.246
		c4.585,0,8.303,3.717,8.303,8.303S121.755,402.481,117.17,402.481z"/>
	<path style="fill:#FE9837;" d="M108.137,512H74.955c-4.585,0-8.303-3.717-8.303-8.303c0-4.585,3.717-8.303,8.303-8.303h33.183
		c4.585,0,8.303,3.717,8.303,8.303C116.44,508.283,112.722,512,108.137,512z"/>
</g>
<rect x="410.74" y="394.179" style="fill:#7D9062;" width="33.211" height="33.211"/>
<rect x="396.958" y="394.179" style="fill:#9CAC74;" width="24.853" height="33.211"/>
<g>
	<path style="fill:#5D734F;" d="M446.077,402.481H394.83c-4.585,0-8.303-3.717-8.303-8.303s3.717-8.303,8.303-8.303h51.246
		c4.585,0,8.303,3.717,8.303,8.303S450.662,402.481,446.077,402.481z"/>
	<path style="fill:#5D734F;" d="M446.077,435.692H394.83c-4.585,0-8.303-3.717-8.303-8.303s3.717-8.303,8.303-8.303h51.246
		c4.585,0,8.303,3.717,8.303,8.303S450.662,435.692,446.077,435.692z"/>
</g>
<g>
</g>
<g>
</g>
<g>
</g>
<g>
</g>
<g>
</g>
<g>
</g>
<g>
</g>
<g>
</g>
<g>
</g>
<g>
</g>
<g>
</g>
<g>
</g>
<g>
</g>
<g>
</g>
<g>
</g>
</svg>
