<?xml version="1.0" encoding="iso-8859-1"?>
<!-- Generator: Adobe Illustrator 19.0.0, SVG Export Plug-In . SVG Version: 6.00 Build 0)  -->
<svg version="1.1" id="Layer_1" xmlns="http://www.w3.org/2000/svg" xmlns:xlink="http://www.w3.org/1999/xlink" x="0px" y="0px"
	 viewBox="0 0 512 512" style="enable-background:new 0 0 512 512;" xml:space="preserve">
<polygon style="fill:#BCC987;" points="332.201,63.564 332.201,152.38 277.733,174.167 277.733,63.564 "/>
<polygon style="fill:#C8DB86;" points="299.52,63.564 299.52,174.167 179.854,152.38 179.854,63.564 "/>
<path style="fill:#5D734F;" d="M307.771,41.775h-16.34V29.957c0-7.509-6.108-13.617-13.617-13.617h-41.396
	c-7.509,0-13.617,6.108-13.617,13.617v11.817h-16.34V29.957C206.46,13.439,219.9,0,236.418,0h41.396
	c16.518,0,29.957,13.439,29.957,29.957V41.775z"/>
<path style="fill:#7D9062;" d="M321.307,33.607h-32.681l8.17,29.957h32.681c0,0,0-17.277,0-21.787S325.817,33.607,321.307,33.607z"
	/>
<path style="fill:#9CAC74;" d="M296.797,41.777c0,4.51,0,21.787,0,21.787h-114.22c0,0,0-17.277,0-21.787s3.649-8.17,8.17-8.17
	h97.879C293.137,33.607,296.797,37.267,296.797,41.777z"/>
<path style="fill:#C8DB86;" d="M409.012,171.509c-3.878-6.721-12.484-9.031-19.205-5.142l-27.332,15.774
	c-8.421-11.471-18.65-21.526-30.273-29.761h-32.822l55.754,107.662v0.131h32.877c0-19.129-4.085-37.3-11.406-53.716l27.256-15.73
	C410.592,186.836,412.89,178.241,409.012,171.509z"/>
<path style="fill:#D4ED85;" d="M355.132,260.042c0,0.044,0,0.087,0,0.131H124.046c0-19.096,4.063-37.234,11.362-53.618
	l-27.278-15.741c-6.721-3.889-9.02-12.484-5.142-19.216c3.878-6.721,12.484-9.031,19.205-5.142l27.321,15.774
	c8.432-11.504,18.683-21.602,30.339-29.849h119.525C333.116,176.248,355.132,215.574,355.132,260.042z"/>
<rect x="322.647" y="260.172" style="fill:#9CAC74;" width="65.362" height="243.658"/>
<rect x="124.046" y="260.172" style="fill:#BCC987;" width="231.282" height="243.658"/>
<g>
	<circle style="fill:#9CAC74;" cx="333.367" cy="324.455" r="8.17"/>
	<circle style="fill:#9CAC74;" cx="309.401" cy="293.398" r="8.17"/>
	<circle style="fill:#9CAC74;" cx="178.677" cy="411.604" r="8.17"/>
</g>
<g>
	<path style="fill:#5D734F;" d="M388.007,268.341H124.045c-4.513,0-8.17-3.657-8.17-8.17c0-4.513,3.657-8.17,8.17-8.17h263.962
		c4.513,0,8.17,3.657,8.17,8.17C396.177,264.684,392.519,268.341,388.007,268.341z"/>
	<path style="fill:#5D734F;" d="M388.007,512H124.045c-4.513,0-8.17-3.657-8.17-8.17s3.657-8.17,8.17-8.17h263.962
		c4.513,0,8.17,3.657,8.17,8.17S392.519,512,388.007,512z"/>
	<path style="fill:#5D734F;" d="M332.201,71.732H179.851c-4.513,0-8.17-3.657-8.17-8.17s3.657-8.17,8.17-8.17h152.351
		c4.513,0,8.17,3.657,8.17,8.17S336.714,71.732,332.201,71.732z"/>
</g>
<g>
</g>
<g>
</g>
<g>
</g>
<g>
</g>
<g>
</g>
<g>
</g>
<g>
</g>
<g>
</g>
<g>
</g>
<g>
</g>
<g>
</g>
<g>
</g>
<g>
</g>
<g>
</g>
<g>
</g>
</svg>
