<?xml version="1.0" encoding="iso-8859-1"?>
<!-- Generator: Adobe Illustrator 19.0.0, SVG Export Plug-In . SVG Version: 6.00 Build 0)  -->
<svg version="1.1" id="Layer_1" xmlns="http://www.w3.org/2000/svg" xmlns:xlink="http://www.w3.org/1999/xlink" x="0px" y="0px"
	 viewBox="0 0 512 512" style="enable-background:new 0 0 512 512;" xml:space="preserve">
<path style="fill:#FEC45E;" d="M356.381,500.818L284.172,296.76c-0.937-2.653-3.122-4.586-5.751-5.284l-0.974-24.397l-3.977-99.677
	h-28.642L256,267.079h4.681l0.962,24.096H256l-11.171,8.378L256,307.931h6.31l3.403,85.278H256l-11.171,8.378L256,409.966h10.381
	l3.75,93.98c0.19,4.513,3.899,8.054,8.367,8.054c0.112,0,0.235-0.011,0.346-0.011c4.625-0.179,8.222-4.077,8.032-8.702
	l-3.724-93.321h23.307l34.127,96.449c1.206,3.441,4.446,5.585,7.898,5.585c0.927,0,1.866-0.156,2.793-0.48
	C355.632,509.967,357.922,505.186,356.381,500.818z M282.482,393.209l-2.294-57.487l20.341,57.487H282.482z"/>
<path style="fill:#FCDB5A;" d="M256,267.079v-99.677h-17.471l-3.977,99.677l-0.974,24.397c-2.63,0.698-4.814,2.631-5.751,5.284
	l-72.208,204.058c-1.542,4.368,0.748,9.149,5.105,10.702c4.368,1.542,9.149-0.748,10.691-5.105l34.127-96.449h23.307l-3.724,93.321
	c-0.19,4.625,3.407,8.523,8.032,8.702c0.112,0,0.223,0.011,0.346,0.011c4.468,0,8.177-3.541,8.367-8.054l3.75-93.98H256v-16.756
	h-9.713l3.403-85.278H256v-16.756h-5.642l0.962-24.096H256z M211.47,393.209l20.341-57.487l-2.294,57.487H211.47z"/>
<g>
	<path style="fill:#87635C;" d="M239.633,74.555c-1.769-4.275-6.672-6.303-10.946-4.534c-4.275,1.771-6.305,6.671-4.534,10.946
		l12.088,29.183l15.481-6.412L239.633,74.555z"/>
	<path style="fill:#87635C;" d="M201.006,104.115c-4.277-1.774-9.176,0.259-10.946,4.534c-1.771,4.275,0.259,9.176,4.534,10.946
		l29.177,12.085l6.412-15.479L201.006,104.115z"/>
	<path style="fill:#87635C;" d="M223.772,140.243l-29.178,12.086c-4.275,1.771-6.305,6.671-4.534,10.946
		c1.336,3.227,4.456,5.174,7.744,5.174c1.069,0,2.155-0.207,3.203-0.64l29.178-12.086L223.772,140.243z"/>
	<path style="fill:#87635C;" d="M236.156,161.977l-12.003,28.978c-1.771,4.275,0.259,9.176,4.534,10.946
		c1.049,0.436,2.135,0.64,3.203,0.64c3.288,0,6.408-1.948,7.744-5.174l12.003-28.978L236.156,161.977z"/>
</g>
<g>
	<path style="fill:#705750;" d="M287.848,190.957l-12.088-29.183l-15.481,6.412l12.088,29.183c1.336,3.227,4.456,5.174,7.744,5.174
		c1.069,0,2.155-0.207,3.203-0.64C287.589,200.131,289.618,195.232,287.848,190.957z"/>
	<path style="fill:#705750;" d="M317.406,152.329l-29.183-12.088l-6.412,15.479l29.183,12.088c1.048,0.436,2.135,0.64,3.203,0.64
		c3.288,0,6.408-1.947,7.744-5.174C323.711,159,321.682,154.1,317.406,152.329z"/>
	<path style="fill:#705750;" d="M321.941,108.649c-1.771-4.275-6.673-6.305-10.946-4.534l-29.18,12.086l6.412,15.479l29.181-12.086
		C321.681,117.824,323.711,112.924,321.941,108.649z"/>
	<path style="fill:#705750;" d="M283.313,70.022c-4.275-1.775-9.176,0.259-10.946,4.534l-12.087,29.178l15.481,6.412l12.087-29.179
		C289.618,76.692,287.589,71.793,283.313,70.022z"/>
</g>
<g>
	<polygon style="fill:#FFAD61;" points="189.803,9.903 223.793,81.116 239.992,74.407 213.664,0 	"/>
	<polygon style="fill:#FFAD61;" points="120.055,93.633 194.444,119.954 201.154,103.755 129.924,69.757 	"/>
	<polygon style="fill:#FFAD61;" points="129.941,202.159 201.153,168.169 194.445,151.97 120.038,178.298 	"/>
	<polygon style="fill:#FFAD61;" points="213.67,271.907 239.992,197.518 223.793,190.808 189.796,262.037 	"/>
</g>
<g>
	<polygon style="fill:#FE9837;" points="322.196,262.021 288.207,190.808 272.007,197.517 298.335,271.924 	"/>
	<polygon style="fill:#FE9837;" points="391.945,178.291 317.557,151.97 310.845,168.169 382.075,202.165 	"/>
	<polygon style="fill:#FE9837;" points="382.059,69.765 310.846,103.755 317.555,119.954 391.962,93.626 	"/>
	<polygon style="fill:#FE9837;" points="298.329,0.017 272.008,74.406 288.206,81.116 322.204,9.886 	"/>
</g>
<path style="fill:#4D3D36;" d="M256,96.176c21.94,0,39.791,17.851,39.791,39.779c0,21.94-17.851,39.791-39.791,39.791l-11.171-8.378
	L256,158.99c12.701,0,23.034-10.333,23.034-23.034c0-12.69-10.333-23.023-23.034-23.023l-11.171-8.378L256,96.176z"/>
<path style="fill:#594B44;" d="M256,158.99v16.756c-21.94,0-39.791-17.851-39.791-39.791c0-21.928,17.851-39.779,39.791-39.779
	v16.756c-12.701,0-23.034,10.333-23.034,23.023C232.965,148.657,243.298,158.99,256,158.99z"/>
<g>
</g>
<g>
</g>
<g>
</g>
<g>
</g>
<g>
</g>
<g>
</g>
<g>
</g>
<g>
</g>
<g>
</g>
<g>
</g>
<g>
</g>
<g>
</g>
<g>
</g>
<g>
</g>
<g>
</g>
</svg>
