<?xml version="1.0" encoding="iso-8859-1"?>
<!-- Generator: Adobe Illustrator 19.0.0, SVG Export Plug-In . SVG Version: 6.00 Build 0)  -->
<svg version="1.1" id="Layer_1" xmlns="http://www.w3.org/2000/svg" xmlns:xlink="http://www.w3.org/1999/xlink" x="0px" y="0px"
	 viewBox="0 0 512.003 512.003" style="enable-background:new 0 0 512.003 512.003;" xml:space="preserve">
<polygon style="fill:#FEC45E;" points="334.648,503.736 325.246,250.029 256.002,180.785 186.758,250.029 183.682,332.941 
	301.58,503.736 "/>
<polygon style="fill:#FCDB5A;" points="297.909,332.941 301.58,503.736 177.355,503.736 183.682,332.941 "/>
<path style="fill:#87635C;" d="M256,445.185c-4.566,0-8.267,3.7-8.267,8.267v50.284h16.534v-50.284
	C264.267,448.885,260.566,445.185,256,445.185z"/>
<path style="fill:#9CAC74;" d="M367.712,512.003H144.291c-4.566,0-8.267-3.7-8.267-8.267c0-4.567,3.701-8.267,8.267-8.267h223.422
	c4.566,0,8.267,3.7,8.267,8.267C375.979,508.303,372.278,512.003,367.712,512.003z"/>
<rect x="247.743" y="-24.503" transform="matrix(0.7071 -0.7071 0.7071 0.7071 -77.5622 244.2126)" style="fill:#87635C;" width="16.534" height="480.471"/>
<rect x="15.773" y="207.443" transform="matrix(0.7071 -0.7071 0.7071 0.7071 -77.5471 244.205)" style="fill:#4D3D36;" width="480.471" height="16.534"/>
<rect x="108.991" y="220.663" transform="matrix(0.7071 0.7071 -0.7071 0.7071 275.2557 -2.5838)" style="fill:#FFFFFF;" width="63.512" height="220.615"/>
<polygon style="fill:#FFE6B8;" points="85.202,431.423 241.201,275.424 218.746,252.969 131.394,321.615 62.747,408.968 "/>
<rect x="19.212" y="303.862" transform="matrix(0.7071 -0.7071 0.7071 0.7071 -188.1547 185.2339)" style="fill:#FFF3DC;" width="220.615" height="31.756"/>
<rect x="339.493" y="220.67" transform="matrix(-0.7071 0.7071 -0.7071 -0.7071 867.7986 302.5016)" style="fill:#FFFFFF;" width="63.512" height="220.615"/>
<polygon style="fill:#FFE6B8;" points="426.801,431.423 270.802,275.424 293.256,252.969 380.609,321.615 449.256,408.968 "/>
<rect x="272.176" y="303.86" transform="matrix(-0.7071 -0.7071 0.7071 -0.7071 426.8517 816.2842)" style="fill:#FFF3DC;" width="220.615" height="31.756"/>
<rect x="108.995" y="-9.853" transform="matrix(-0.7071 0.7071 -0.7071 -0.7071 311.3079 71.9605)" style="fill:#FFFFFF;" width="63.512" height="220.615"/>
<polygon style="fill:#FFE6B8;" points="40.291,44.914 196.292,200.914 218.746,178.459 150.1,91.106 62.747,22.458 "/>
<rect x="41.665" y="73.349" transform="matrix(0.7071 0.7071 -0.7071 0.7071 107.6046 -81.3273)" style="fill:#FFF3DC;" width="220.615" height="31.756"/>
<rect x="339.502" y="-9.844" transform="matrix(0.7071 0.7071 -0.7071 0.7071 179.777 -233.0937)" style="fill:#FFFFFF;" width="63.512" height="220.615"/>
<polygon style="fill:#FFE6B8;" points="471.712,44.914 315.711,200.914 293.256,178.459 361.903,91.106 449.256,22.458 "/>
<rect x="249.721" y="73.361" transform="matrix(-0.7071 0.7071 -0.7071 -0.7071 677.7078 -102.2388)" style="fill:#FFF3DC;" width="220.615" height="31.756"/>
<g>
</g>
<g>
</g>
<g>
</g>
<g>
</g>
<g>
</g>
<g>
</g>
<g>
</g>
<g>
</g>
<g>
</g>
<g>
</g>
<g>
</g>
<g>
</g>
<g>
</g>
<g>
</g>
<g>
</g>
</svg>
