<?xml version="1.0" encoding="iso-8859-1"?>
<!-- Generator: Adobe Illustrator 19.0.0, SVG Export Plug-In . SVG Version: 6.00 Build 0)  -->
<svg version="1.1" id="Layer_1" xmlns="http://www.w3.org/2000/svg" xmlns:xlink="http://www.w3.org/1999/xlink" x="0px" y="0px"
	 viewBox="0 0 512 512" style="enable-background:new 0 0 512 512;" xml:space="preserve">
<path style="fill:#FFDB9A;" d="M506.106,54.54c-50.649,4.794-100.15,24.272-142.067,56.703
	c-16.249-19.647-40.814-32.172-68.294-32.172h-9.07L311.42,457.46h16.395c46.418,0,80.458-37.776,75.63-83.946l-16.395-150.586
	l0.416-0.045c40.814-1.047,81.111-23.023,104.944-61.733C513.116,127.504,516.931,88.434,506.106,54.54z"/>
<path style="fill:#FFE6B8;" d="M369.789,373.513c3.725,46.17-22.539,83.946-58.368,83.946H256h-71.816
	c-46.418,0-80.379-37.765-75.45-83.924l16.26-150.608l-0.461-0.045c-40.814-1.047-81.122-23.023-104.944-61.733
	C-1.116,127.504-4.931,88.434,5.894,54.54c50.649,4.794,100.15,24.272,142.067,56.703c16.249-19.647,40.814-32.172,68.294-32.172
	H256h30.675c21.2,0,40.161,12.524,52.708,32.172v0.079c4.175,6.56,10.038,22.179,11.185,35.525
	C357.141,222.928,369.789,373.513,369.789,373.513z"/>
<path style="fill:#FE9837;" d="M256,267.872l14.82,100.949c2.431,0.428,4.94,0.641,7.506,0.641c21.77,0,39.908-15.591,43.855-36.213
	l0.068-16.885C318.328,293.373,298.332,267.872,256,267.872z"/>
<path style="fill:#FFAD61;" d="M256,267.872c-42.333,0-62.328,25.502-66.249,48.493l0.068,16.879
	c3.945,20.624,22.084,36.217,43.856,36.217c8.136,0,15.754-2.194,22.326-5.998c4.501,2.611,9.497,4.456,14.82,5.356
	c10.443-3.578,18.398-21.921,18.398-44.01C289.218,300.145,279.62,267.872,256,267.872z"/>
<g>
	<circle style="fill:#FE9837;" cx="157.506" cy="396.685" r="8.44"/>
	<circle style="fill:#FE9837;" cx="180.743" cy="419.754" r="8.44"/>
</g>
<path style="fill:#705750;" d="M213.316,316.368h-23.551c-0.49,2.872-0.743,5.705-0.743,8.443c0,2.885,0.284,5.703,0.807,8.436
	h23.486c4.661,0,8.44-3.778,8.44-8.44C221.754,320.146,217.977,316.368,213.316,316.368z"/>
<g>
	<path style="fill:#4D3D36;" d="M290.245,324.808c0,4.662,3.779,8.44,8.44,8.44h23.486c0.523-2.733,0.807-5.551,0.807-8.436
		c0-2.738-0.253-5.572-0.743-8.443h-23.55C294.023,316.368,290.245,320.146,290.245,324.808z"/>
	<path style="fill:#4D3D36;" d="M190.388,243.405c-2.754,0-5.452-1.346-7.071-3.823l-5.4-8.261h-14.222
		c-4.661,0-8.44-3.778-8.44-8.44c0-4.662,3.779-8.44,8.44-8.44h18.788c2.849,0,5.505,1.437,7.063,3.821l7.899,12.082
		c2.551,3.901,1.455,9.131-2.445,11.682C193.574,242.959,191.972,243.405,190.388,243.405z"/>
	<path style="fill:#4D3D36;" d="M321.612,243.405c-1.584,0-3.186-0.446-4.61-1.377c-3.901-2.551-4.996-7.78-2.445-11.682
		l7.899-12.082c1.559-2.384,4.215-3.821,7.063-3.821h18.788c4.661,0,8.44,3.778,8.44,8.44c0,4.662-3.779,8.44-8.44,8.44h-14.222
		l-5.4,8.261C327.065,242.058,324.366,243.405,321.612,243.405z"/>
</g>
<path style="fill:#FECF7C;" d="M463.66,143.457c9.538-15.499,14.488-32.903,14.597-50.248c-33.592,7.817-65.48,23.01-93.561,44.736
	l-6.153,4.761c10.282,8.338,11.881,24.549,3.563,34.852l1.263,11.593C415.88,193.16,446.568,171.218,463.66,143.457z"/>
<path style="fill:#FFDB9A;" d="M48.34,143.457c-9.538-15.499-14.488-32.903-14.597-50.248c33.592,7.817,65.48,23.01,93.561,44.736
	l6.153,4.761c-10.282,8.338-11.881,24.549-3.563,34.852l-1.263,11.593C96.12,193.16,65.432,171.218,48.34,143.457z"/>
<g>
</g>
<g>
</g>
<g>
</g>
<g>
</g>
<g>
</g>
<g>
</g>
<g>
</g>
<g>
</g>
<g>
</g>
<g>
</g>
<g>
</g>
<g>
</g>
<g>
</g>
<g>
</g>
<g>
</g>
</svg>
