<?xml version="1.0" encoding="iso-8859-1"?>
<!-- Generator: Adobe Illustrator 19.0.0, SVG Export Plug-In . SVG Version: 6.00 Build 0)  -->
<svg version="1.1" id="Layer_1" xmlns="http://www.w3.org/2000/svg" xmlns:xlink="http://www.w3.org/1999/xlink" x="0px" y="0px"
	 viewBox="0 0 512 512" style="enable-background:new 0 0 512 512;" xml:space="preserve">
<polygon style="fill:#FEC45E;" points="256.003,337.582 158.498,366.423 161.402,400.181 256.003,433.94 301.037,512 330.204,512 
	342.74,366.423 "/>
<polygon style="fill:#FCDB5A;" points="307.136,400.181 301.037,512 171.034,512 161.402,400.181 "/>
<path style="fill:#9CAC74;" d="M218.611,246.266c-33.044,5.13-69.926-4.977-99.292-30.427s-44.614-60.522-44.232-93.959
	l79.358,44.395L218.611,246.266z"/>
<path style="fill:#BCC987;" d="M174.379,152.307c29.366,25.45,44.613,60.522,44.232,93.959L75.086,121.879
	C108.13,116.748,145.013,126.856,174.379,152.307z"/>
<path style="fill:#7D9062;" d="M174.69,197.072c-3.523-3.053-8.853-2.669-11.904,0.854c-3.052,3.523-2.67,8.853,0.854,11.904
	l86.839,75.216l11.05-12.758L174.69,197.072z"/>
<g>
	<path style="fill:#9CAC74;" d="M256,0l-22.505,94.962L256,189.924c25.518-21.611,42.036-56.102,42.036-94.962S281.518,21.611,256,0
		z"/>
	<path style="fill:#9CAC74;" d="M293.389,246.266c33.044,5.13,69.926-4.977,99.292-30.427c29.366-25.45,44.614-60.522,44.232-93.959
		l-79.358,44.395L293.389,246.266z"/>
</g>
<path style="fill:#BCC987;" d="M213.964,94.962c0,38.86,16.518,73.351,42.036,94.962V0
	C230.482,21.611,213.964,56.102,213.964,94.962z"/>
<path style="fill:#5D734F;" d="M256,115.974c-4.661,0-8.44,3.779-8.44,8.44v209.963h16.879V124.414
	C264.44,119.752,260.661,115.974,256,115.974z"/>
<path style="fill:#BCC987;" d="M337.621,152.307c-29.366,25.45-44.613,60.522-44.232,93.959l143.525-124.388
	C403.87,116.748,366.987,126.856,337.621,152.307z"/>
<path style="fill:#5D734F;" d="M349.221,197.926c-3.051-3.523-8.382-3.907-11.904-0.854l-86.839,75.216l11.05,12.758l86.839-75.216
	C351.89,206.778,352.273,201.449,349.221,197.926z"/>
<rect x="150.112" y="311.87" style="fill:#FD830C;" width="201.008" height="54.553"/>
<g>
</g>
<g>
</g>
<g>
</g>
<g>
</g>
<g>
</g>
<g>
</g>
<g>
</g>
<g>
</g>
<g>
</g>
<g>
</g>
<g>
</g>
<g>
</g>
<g>
</g>
<g>
</g>
<g>
</g>
</svg>
