<?xml version="1.0" encoding="iso-8859-1"?>
<!-- Generator: Adobe Illustrator 19.0.0, SVG Export Plug-In . SVG Version: 6.00 Build 0)  -->
<svg version="1.1" id="Layer_1" xmlns="http://www.w3.org/2000/svg" xmlns:xlink="http://www.w3.org/1999/xlink" x="0px" y="0px"
	 viewBox="0 0 511.999 511.999" style="enable-background:new 0 0 511.999 511.999;" xml:space="preserve">
<path style="fill:#FFDB9A;" d="M422.1,0.191c-38.628,29.089-71.834,70.687-93.656,121.621
	c-12.464,29.078-20.259,58.932-23.532,87.976l35.872,31.429c23.24-24.882,43.139-54.972,57.863-89.326
	C420.469,100.957,427.68,48.223,422.1,0.191z"/>
<path style="fill:#FFE6B8;" d="M375.193,343.849c0,0-2.515-9.075-5.757-20.858l-13.77-4.677l9.307-11.596
	c-3.432-12.548-6.672-24.496-8.442-31.351c-3.228-12.486-8.616-24.005-15.748-34.151c-9.438-12.992-21.676-23.802-35.872-31.429
	l0.101-0.191c-14.173-7.537-31.654-11.882-48.988-12.084l57.424,295.968H329.4c45.186,0,81.823-36.626,81.823-81.823
	C411.223,383.445,396.926,358.563,375.193,343.849z"/>
<g>
	<path style="fill:#FFF3DC;" d="M349.288,343.849c0,0-11.204-51.631-14.612-68.482c-2.52-12.486-6.738-24.005-12.317-34.151
		c-14.725-25.894-39.472-43.165-66.333-43.704c-17.818,0-34.466,4.357-48.988,12.084l-39.886-7.127l4.115,38.747
		c-7.132,10.146-12.52,21.665-15.748,34.151c-1.74,6.733-5.069,19.023-8.44,31.351l8.583,10.856l-13.047,5.421
		c-3.242,11.781-5.756,20.854-5.756,20.854c-21.732,14.713-36.029,39.595-36.029,67.807c0,45.197,36.637,81.823,81.823,81.823
		h23.363c13.442,11.541,30.911,18.515,50.012,18.515c18.549-0.326,36.896-7.255,50.012-18.515h7.413
		c35.355,0,64.027-36.626,64.027-81.823C377.477,383.445,366.296,358.563,349.288,343.849z"/>
	<path style="fill:#FFF3DC;" d="M256.025,511.994C255.564,512.006,256.497,511.994,256.025,511.994L256.025,511.994z"/>
</g>
<g>
	<path style="fill:#87635C;" d="M198.841,345.017l-4.271-19.699c-0.654-3.014-2.899-5.431-5.856-6.304l-41.632-12.294l-4.469,16.275
		l36.527,10.785l3.21,14.811c0.857,3.952,4.352,6.651,8.237,6.651c0.592,0,1.193-0.064,1.795-0.193
		C196.937,354.062,199.828,349.57,198.841,345.017z"/>
	<path style="fill:#87635C;" d="M342.695,313.297l-19.359,5.717c-2.957,0.873-5.202,3.291-5.856,6.304l-4.271,19.699
		c-0.987,4.553,1.903,9.045,6.458,10.033c0.602,0.13,1.202,0.193,1.795,0.193c3.885-0.001,7.381-2.7,8.237-6.651l3.21-14.811
		l13.347-3.94l9.46-10.557L342.695,313.297z"/>
</g>
<g>
	<path style="fill:#FECF7C;" d="M274.394,469.797h-36.738c-4.66,0-8.436-3.776-8.436-8.436c0-4.66,3.776-8.437,8.436-8.437h36.738
		c4.66,0,8.437,3.776,8.437,8.437C282.831,466.021,279.053,469.797,274.394,469.797z"/>
	<rect x="247.583" y="430.993" style="fill:#FECF7C;" width="16.873" height="30.366"/>
</g>
<polygon style="fill:#FFE6B8;" points="274.394,408.347 237.656,408.347 256.025,428.183 "/>
<path style="fill:#4D3D36;" d="M256.025,439.431c-1.821,0-3.642-0.587-5.162-1.764l-18.369-14.212
	c-3.685-2.85-4.362-8.15-1.511-11.835c2.852-3.686,8.153-4.36,11.835-1.511l13.207,10.217l13.207-10.217
	c3.682-2.849,8.983-2.178,11.835,1.511c2.852,3.684,2.176,8.983-1.511,11.835l-18.369,14.212
	C259.667,438.843,257.846,439.431,256.025,439.431z"/>
<g>
	<path style="fill:#FFE6B8;" d="M233.528,269.768c-4.66,0-8.437-3.776-8.437-8.436v-12.235c0-4.66,3.776-8.437,8.437-8.437
		c4.66,0,8.436,3.776,8.436,8.437v12.235C241.964,265.992,238.187,269.768,233.528,269.768z"/>
	<path style="fill:#FFE6B8;" d="M256.025,306.473c-4.66,0-8.437-3.776-8.437-8.437v-12.235c0-4.66,3.776-8.436,8.437-8.436
		c4.66,0,8.436,3.776,8.436,8.436v12.235C264.462,302.697,260.684,306.473,256.025,306.473z"/>
	<path style="fill:#FFE6B8;" d="M278.522,269.768c-4.66,0-8.436-3.776-8.436-8.436v-12.235c0-4.66,3.776-8.437,8.436-8.437
		c4.66,0,8.437,3.776,8.437,8.437v12.235C286.959,265.992,283.182,269.768,278.522,269.768z"/>
	<path style="fill:#FFE6B8;" d="M89.899,0c-5.579,48.032,1.631,100.766,23.453,151.7c14.725,34.353,34.623,64.444,57.863,89.326
		c9.438-12.992,21.676-23.802,35.872-31.429l-0.101-0.191c-3.273-29.044-10.967-58.707-23.431-87.785
		C161.733,70.687,128.527,29.089,89.899,0z"/>
</g>
<polygon style="fill:#594B44;" points="364.974,306.719 342.695,313.297 346.256,329.839 369.439,322.994 "/>
<g>
</g>
<g>
</g>
<g>
</g>
<g>
</g>
<g>
</g>
<g>
</g>
<g>
</g>
<g>
</g>
<g>
</g>
<g>
</g>
<g>
</g>
<g>
</g>
<g>
</g>
<g>
</g>
<g>
</g>
</svg>
