<?xml version="1.0" encoding="iso-8859-1"?>
<!-- Generator: Adobe Illustrator 19.0.0, SVG Export Plug-In . SVG Version: 6.00 Build 0)  -->
<svg version="1.1" id="Layer_1" xmlns="http://www.w3.org/2000/svg" xmlns:xlink="http://www.w3.org/1999/xlink" x="0px" y="0px"
	 viewBox="0 0 512 512" style="enable-background:new 0 0 512 512;" xml:space="preserve">
<path style="fill:#FFE6B8;" d="M257.407,0.023l104.189,132.58h33.758C327.252,31.857,296.566,0.731,257.407,0.023z"/>
<path style="fill:#FFF3DC;" d="M257.407,0.023c29.516,0.956,52.787,32.228,104.189,132.58H116.657C185.558,30.652,216.165,0,256,0
	C256.473,0,256.945,0.011,257.407,0.023z"/>
<g>
	<circle style="fill:#FFE6B8;" cx="306.637" cy="98.169" r="8.44"/>
	<circle style="fill:#FFE6B8;" cx="284.132" cy="64.411" r="8.44"/>
	<circle style="fill:#FFE6B8;" cx="205.363" cy="89.167" r="8.44"/>
</g>
<path style="fill:#FEC45E;" d="M442.818,458.122c11.399,11.399,11.399,29.865,0,41.264c-10.217,10.217-26.129,11.275-37.517,3.162
	l-41.174-59.077v-257.08l56.264,33.758l7.776,223.322L442.818,458.122z"/>
<path style="fill:#FCDB5A;" d="M409.06,458.122c11.399,11.399,11.399,29.865,0,41.264c-1.182,1.182-2.442,2.239-3.758,3.162
	c-1.317-0.923-2.566-1.98-3.747-3.162l-5.345-5.345C356.037,505.642,301.36,512,256,512s-100.037-6.358-140.209-17.959l-5.345,5.345
	c-11.388,11.399-29.865,11.399-41.264,0c-11.399-11.399-11.399-29.865,0-41.264l14.651-14.651l7.776-223.322l147.512-45.011
	l147.512,45.011l7.776,223.322L409.06,458.122z"/>
<path style="fill:#FD830C;" d="M317.887,327.848c-2.316,0-4.529-0.952-6.124-2.632l-24.825-26.176l-24.821,26.175
	c-1.593,1.681-3.808,2.632-6.124,2.632c-2.316,0-4.53-0.952-6.124-2.632L225.05,299.04l-24.819,26.176
	c-1.593,1.681-3.808,2.632-6.124,2.632s-4.53-0.952-6.124-2.632l-30.943-32.633c-3.207-3.383-3.065-8.724,0.317-11.931
	c3.381-3.208,8.724-3.065,11.931,0.317l24.819,26.175l24.819-26.175c1.593-1.681,3.808-2.632,6.124-2.632s4.53,0.952,6.124,2.632
	l24.819,26.175l24.821-26.175c1.593-1.681,3.808-2.632,6.124-2.632s4.529,0.952,6.124,2.632l24.825,26.176l24.825-26.176
	c3.209-3.383,8.55-3.523,11.932-0.316c3.381,3.207,3.523,8.549,0.316,11.931l-30.95,32.633
	C322.416,326.897,320.203,327.848,317.887,327.848z"/>
<path style="fill:#FE9837;" d="M420.391,132.602h-33.758v87.546h33.758c12.333,0,22.325-9.992,22.325-22.314v-42.918
	C442.717,142.595,432.724,132.602,420.391,132.602z"/>
<path style="fill:#FFAD61;" d="M408.959,154.917v42.918c0,12.322-9.992,22.314-22.325,22.314H91.609
	c-12.333,0-22.325-9.992-22.325-22.314v-42.918c0-12.322,9.992-22.314,22.325-22.314h295.025
	C398.966,132.602,408.959,142.595,408.959,154.917z"/>
<g>
</g>
<g>
</g>
<g>
</g>
<g>
</g>
<g>
</g>
<g>
</g>
<g>
</g>
<g>
</g>
<g>
</g>
<g>
</g>
<g>
</g>
<g>
</g>
<g>
</g>
<g>
</g>
<g>
</g>
</svg>
