<?xml version="1.0" encoding="iso-8859-1"?>
<!-- Generator: Adobe Illustrator 19.0.0, SVG Export Plug-In . SVG Version: 6.00 Build 0)  -->
<svg version="1.1" id="Layer_1" xmlns="http://www.w3.org/2000/svg" xmlns:xlink="http://www.w3.org/1999/xlink" x="0px" y="0px"
	 viewBox="0 0 512 512" style="enable-background:new 0 0 512 512;" xml:space="preserve">
<path style="fill:#FFE6B8;" d="M390.482,131.005h-26.545l-59.707,198.307l-17.003,159.26c0,0.045,10.465,0,10.465,0
	c23.383,0,43.481-18.77,45.259-42.074c1.373-18.072,3.713-46.654,6.257-77.228c16.89-5.84,29.887-21.583,31.283-39.959
	c1.436-18.863,4.09-49.33,6.861-81.488l-10.554-8.121l12.046-9.247c0.556-6.5,1.11-12.996,1.651-19.41
	C424.6,272.046,490.946,265.419,512,253.671C485.826,158.585,390.482,131.005,390.482,131.005z"/>
<path style="fill:#FFF3DC;" d="M121.518,131.005h242.418c-5.413,76.766-12.153,153.69-14.696,198.307
	c-1.047,18.376-10.78,34.118-23.428,39.958c-1.902,30.574-3.657,59.156-4.692,77.228c-1.328,23.304-16.384,42.074-33.893,42.074
	c0,0.045-73.233,0.315-73.233,0.315c-23.383,0-43.796-19.085-45.574-42.389c-1.373-18.072-3.713-46.654-6.257-77.228
	c-16.89-5.84-29.887-21.583-31.283-39.959c-1.436-18.861-3.758-49.323-6.347-81.478l11.029-8.617l-12.441-8.759
	c-0.533-6.501-1.074-12.998-1.615-19.412C87.4,272.046,21.054,265.419,0,253.671C26.174,158.585,121.518,131.005,121.518,131.005z"
	/>
<path style="fill:#FFDB9A;" d="M341.982,60.99c-4.321,0-8.507,0.529-12.513,1.53l1.339,100.149
	c3.601,0.799,7.337,1.227,11.174,1.227c22.01,0,40.791-13.83,48.128-33.263c2.149-5.649,3.32-11.793,3.32-18.196
	C393.43,84.024,370.395,60.99,341.982,60.99z"/>
<g>
	<path style="fill:#87635C;" d="M278.591,435.21H233.41c-4.661,0-8.44-3.778-8.44-8.44s3.779-8.44,8.44-8.44h45.181
		c4.661,0,8.44,3.778,8.44,8.44S283.252,435.21,278.591,435.21z"/>
	<rect x="247.56" y="390.572" style="fill:#87635C;" width="16.879" height="36.2"/>
</g>
<polygon style="fill:#FFE6B8;" points="224.919,360.525 255.948,390.568 287.081,360.525 "/>
<path style="fill:#4D3D36;" d="M256,399.323c-1.688,0-3.377-0.505-4.827-1.518l-30.987-21.61c-3.824-2.666-4.761-7.926-2.095-11.749
	c2.667-3.824,7.929-4.761,11.75-2.094L256,380.595l26.159-18.243c3.823-2.668,9.083-1.73,11.75,2.094
	c2.666,3.823,1.728,9.083-2.095,11.749l-30.987,21.61C259.377,398.816,257.688,399.323,256,399.323z"/>
<path style="fill:#FFE6B8;" d="M329.469,62.52c17.397,4.951,30.202,25.274,30.202,49.917c0,6.403-0.518,12.918-2.138,18.567
	c-4.434,15.551-14.392,27.513-26.725,31.665c-3.488-0.788-6.864-1.924-10.049-3.365c-14.989,19.569-38.574,32.205-65.131,32.205
	s-50.142-12.637-65.131-32.205c-6.47,2.937-13.65,4.591-21.223,4.591c-22.01,0-40.791-13.83-48.128-33.263
	c-2.149-5.649-3.32-11.793-3.32-18.196c0-28.413,23.034-51.448,51.448-51.448c11.748,0,22.573,3.938,31.226,10.566
	c3.522-27.322,26.849-48.443,55.127-48.443s51.605,21.121,55.127,48.443C316.225,67.359,322.571,64.242,329.469,62.52z"/>
<g>
	<path style="fill:#87635C;" d="M198.205,243.12l-75.084-12.663l1.412,17.376l63.823,10.738v21.775c0,4.662,3.779,8.44,8.44,8.44
		s8.44-3.778,8.44-8.44v-28.906C205.235,247.324,202.265,243.808,198.205,243.12z"/>
	<path style="fill:#87635C;" d="M313.795,243.12c-4.06,0.686-7.031,4.203-7.031,8.321v28.906c0,4.662,3.779,8.44,8.44,8.44
		s8.44-3.778,8.44-8.44v-21.775l31.004-5.216l11.877-10.273l-10.527-7.08L313.795,243.12z"/>
</g>
<polygon style="fill:#4D3D36;" points="355.996,236.003 354.647,253.356 387.466,247.834 388.878,230.457 "/>
<g>
</g>
<g>
</g>
<g>
</g>
<g>
</g>
<g>
</g>
<g>
</g>
<g>
</g>
<g>
</g>
<g>
</g>
<g>
</g>
<g>
</g>
<g>
</g>
<g>
</g>
<g>
</g>
<g>
</g>
</svg>
