<?xml version="1.0" encoding="iso-8859-1"?>
<!-- Generator: Adobe Illustrator 19.0.0, SVG Export Plug-In . SVG Version: 6.00 Build 0)  -->
<svg version="1.1" id="Layer_1" xmlns="http://www.w3.org/2000/svg" xmlns:xlink="http://www.w3.org/1999/xlink" x="0px" y="0px"
	 viewBox="0 0 512 512" style="enable-background:new 0 0 512 512;" xml:space="preserve">
<path style="fill:#FCDB5A;" d="M432.491,101.183L287.764,245.911l-26.57,4.891l4.893-26.567L410.815,79.506
	c1.872,4.766,4.727,9.225,8.589,13.087C423.266,96.456,427.725,99.311,432.491,101.183z"/>
<rect x="238.607" y="235.609" transform="matrix(-0.7071 0.7071 -0.7071 -0.7071 623.084 243.7831)" style="fill:#FEC45E;" width="44.892" height="30.655"/>
<path style="fill:#5D734F;" d="M413.501,98.497c-18.217-18.217-18.217-47.859,0-66.077l10.744-10.743l19.663,3.933l-18.609,18.609
	c-11.713,11.713-11.713,30.769,0,42.481s30.769,11.713,42.481,0l18.609-18.609l3.933,19.663L479.58,98.498
	C461.36,116.714,431.718,116.714,413.501,98.497z"/>
<polygon style="fill:#FEC45E;" points="512,66.081 490.323,87.757 466.728,64.162 461.836,37.593 488.405,42.485 "/>
<rect x="440.988" y="2.041" transform="matrix(-0.7071 0.7071 -0.7071 -0.7071 801.6661 -267.8923)" style="fill:#FCDB5A;" width="30.655" height="60.086"/>
<path style="fill:#BCC987;" d="M152.993,236.417L14.424,415.775c9.911,15.982,22.007,31.35,36.227,45.571
	c14.221,14.221,29.588,26.317,45.571,36.227c0.008-0.008,179.358-138.569,179.358-138.569L152.993,236.417z"/>
<path style="fill:#7D9062;" d="M275.903,359.327L123.231,511.997c-9.132-4.129-18.168-8.935-27.009-14.424
	c0.008-0.008,82.75-82.75,82.75-82.75c27.308-27.308,60.499-45.838,96.608-55.819L275.903,359.327z"/>
<g>
	<path style="fill:#9CAC74;" d="M14.432,415.767C8.935,406.935,4.129,397.897,0,388.766l152.672-152.672l0.323,0.323
		c-9.981,36.109-28.512,69.3-55.819,96.608L14.432,415.767z"/>
	<path style="fill:#9CAC74;" d="M239.566,244.902l-54.537,54.537c-7.601,7.602-7.601,19.927,0,27.528
		c7.602,7.602,19.927,7.602,27.528,0l54.537-54.537L239.566,244.902z"/>
</g>
<g>
</g>
<g>
</g>
<g>
</g>
<g>
</g>
<g>
</g>
<g>
</g>
<g>
</g>
<g>
</g>
<g>
</g>
<g>
</g>
<g>
</g>
<g>
</g>
<g>
</g>
<g>
</g>
<g>
</g>
</svg>
