<?xml version="1.0" encoding="iso-8859-1"?>
<!-- Generator: Adobe Illustrator 19.0.0, SVG Export Plug-In . SVG Version: 6.00 Build 0)  -->
<svg version="1.1" id="Layer_1" xmlns="http://www.w3.org/2000/svg" xmlns:xlink="http://www.w3.org/1999/xlink" x="0px" y="0px"
	 viewBox="0 0 512 512" style="enable-background:new 0 0 512 512;" xml:space="preserve">
<g>
	<polygon style="fill:#FCDB5A;" points="105.696,158.503 88.817,158.503 88.817,122.575 97.256,111.322 105.696,122.575 	"/>
	<polygon style="fill:#FCDB5A;" points="105.696,222.001 88.817,222.001 88.817,186.072 97.256,174.819 105.696,186.072 	"/>
</g>
<g>
	<rect x="88.817" y="158.506" style="fill:#FEC45E;" width="16.879" height="27.569"/>
	<rect x="88.817" y="95.007" style="fill:#FEC45E;" width="16.879" height="27.569"/>
</g>
<g>
	<polygon style="fill:#FCDB5A;" points="105.696,285.498 88.817,285.498 88.817,249.57 97.256,238.317 105.696,249.57 	"/>
	<polygon style="fill:#FCDB5A;" points="105.696,348.996 88.817,348.996 88.817,313.067 97.256,301.814 105.696,313.067 	"/>
</g>
<g>
	<rect x="88.817" y="285.493" style="fill:#FEC45E;" width="16.879" height="27.569"/>
	<rect x="88.817" y="222.005" style="fill:#FEC45E;" width="16.879" height="27.569"/>
</g>
<polygon style="fill:#FCDB5A;" points="105.696,412.494 88.817,412.494 88.817,376.565 97.256,365.313 105.696,376.565 "/>
<g>
	<rect x="88.817" y="412.492" style="fill:#FEC45E;" width="16.879" height="27.569"/>
	<rect x="88.817" y="348.993" style="fill:#FEC45E;" width="16.879" height="27.569"/>
</g>
<g>
	<polygon style="fill:#FCDB5A;" points="406.304,158.503 423.183,158.503 423.183,122.575 414.744,111.322 406.304,122.575 	"/>
	<polygon style="fill:#FCDB5A;" points="406.304,222.001 423.183,222.001 423.183,186.072 414.744,174.819 406.304,186.072 	"/>
</g>
<g>
	<rect x="406.303" y="158.506" style="fill:#FEC45E;" width="16.879" height="27.569"/>
	<rect x="406.303" y="95.007" style="fill:#FEC45E;" width="16.879" height="27.569"/>
</g>
<g>
	<polygon style="fill:#FCDB5A;" points="406.304,285.498 423.183,285.498 423.183,249.57 414.744,238.317 406.304,249.57 	"/>
	<polygon style="fill:#FCDB5A;" points="406.304,348.996 423.183,348.996 423.183,313.067 414.744,301.814 406.304,313.067 	"/>
</g>
<g>
	<rect x="406.303" y="285.493" style="fill:#FEC45E;" width="16.879" height="27.569"/>
	<rect x="406.303" y="222.005" style="fill:#FEC45E;" width="16.879" height="27.569"/>
</g>
<polygon style="fill:#FCDB5A;" points="406.304,412.494 423.183,412.494 423.183,376.565 414.744,365.313 406.304,376.565 "/>
<g>
	<rect x="406.303" y="412.492" style="fill:#FEC45E;" width="16.879" height="27.569"/>
	<rect x="406.303" y="348.993" style="fill:#FEC45E;" width="16.879" height="27.569"/>
</g>
<g>
	<polygon style="fill:#FCDB5A;" points="169.193,158.503 152.314,158.503 152.314,122.575 160.753,111.322 169.193,122.575 	"/>
	<polygon style="fill:#FCDB5A;" points="169.193,222.001 152.314,222.001 152.314,186.072 160.753,174.819 169.193,186.072 	"/>
</g>
<g>
	<rect x="152.317" y="158.506" style="fill:#FEC45E;" width="16.879" height="27.569"/>
	<rect x="152.317" y="95.007" style="fill:#FEC45E;" width="16.879" height="27.569"/>
</g>
<g>
	<polygon style="fill:#FCDB5A;" points="169.193,285.498 152.314,285.498 152.314,249.57 160.753,238.317 169.193,249.57 	"/>
	<polygon style="fill:#FCDB5A;" points="169.193,348.996 152.314,348.996 152.314,313.067 160.753,301.814 169.193,313.067 	"/>
</g>
<g>
	<rect x="152.317" y="285.493" style="fill:#FEC45E;" width="16.879" height="27.569"/>
	<rect x="152.317" y="222.005" style="fill:#FEC45E;" width="16.879" height="27.569"/>
</g>
<g>
	<polygon style="fill:#FCDB5A;" points="169.193,412.494 152.314,412.494 152.314,376.565 160.753,365.313 169.193,376.565 	"/>
	<polygon style="fill:#FCDB5A;" points="169.193,475.991 152.314,475.991 152.314,440.063 160.753,428.811 169.193,440.063 	"/>
</g>
<g>
	<rect x="152.317" y="412.492" style="fill:#FEC45E;" width="16.879" height="27.569"/>
	<rect x="152.317" y="348.993" style="fill:#FEC45E;" width="16.879" height="27.569"/>
</g>
<g>
	<rect x="152.317" y="46.781" style="fill:#FCDB5A;" width="16.879" height="48.225"/>
	<polygon style="fill:#FCDB5A;" points="232.691,158.503 215.812,158.503 215.812,122.575 224.252,111.322 232.691,122.575 	"/>
	<polygon style="fill:#FCDB5A;" points="232.691,222.001 215.812,222.001 215.812,186.072 224.252,174.819 232.691,186.072 	"/>
</g>
<g>
	<rect x="215.816" y="158.506" style="fill:#FEC45E;" width="16.879" height="27.569"/>
	<rect x="215.816" y="95.007" style="fill:#FEC45E;" width="16.879" height="27.569"/>
</g>
<g>
	<polygon style="fill:#FCDB5A;" points="232.691,285.498 215.812,285.498 215.812,249.57 224.252,238.317 232.691,249.57 	"/>
	<polygon style="fill:#FCDB5A;" points="232.691,348.996 215.812,348.996 215.812,313.067 224.252,301.814 232.691,313.067 	"/>
</g>
<g>
	<rect x="215.816" y="285.493" style="fill:#FEC45E;" width="16.879" height="27.569"/>
	<rect x="215.816" y="222.005" style="fill:#FEC45E;" width="16.879" height="27.569"/>
</g>
<g>
	<polygon style="fill:#FCDB5A;" points="232.691,412.494 215.812,412.494 215.812,376.565 224.252,365.313 232.691,376.565 	"/>
	<polygon style="fill:#FCDB5A;" points="232.691,487.244 215.812,487.244 215.812,440.063 224.252,428.811 232.691,440.063 	"/>
</g>
<g>
	<rect x="215.816" y="412.492" style="fill:#FEC45E;" width="16.879" height="27.569"/>
	<rect x="215.816" y="348.993" style="fill:#FEC45E;" width="16.879" height="27.569"/>
</g>
<g>
	<rect x="215.816" y="24.276" style="fill:#FCDB5A;" width="16.879" height="70.73"/>
	<polygon style="fill:#FCDB5A;" points="359.686,158.503 342.807,158.503 342.807,122.575 351.247,111.322 359.686,122.575 	"/>
	<polygon style="fill:#FCDB5A;" points="359.686,222.001 342.807,222.001 342.807,186.072 351.247,174.819 359.686,186.072 	"/>
</g>
<g>
	<rect x="342.804" y="158.506" style="fill:#FEC45E;" width="16.879" height="27.569"/>
	<rect x="342.804" y="95.007" style="fill:#FEC45E;" width="16.879" height="27.569"/>
</g>
<g>
	<polygon style="fill:#FCDB5A;" points="359.686,285.498 342.807,285.498 342.807,249.57 351.247,238.317 359.686,249.57 	"/>
	<polygon style="fill:#FCDB5A;" points="359.686,348.996 342.807,348.996 342.807,313.067 351.247,301.814 359.686,313.067 	"/>
</g>
<g>
	<rect x="342.804" y="285.493" style="fill:#FEC45E;" width="16.879" height="27.569"/>
	<rect x="342.804" y="222.005" style="fill:#FEC45E;" width="16.879" height="27.569"/>
</g>
<g>
	<polygon style="fill:#FCDB5A;" points="359.686,412.494 342.807,412.494 342.807,376.565 351.247,365.313 359.686,376.565 	"/>
	<polygon style="fill:#FCDB5A;" points="359.686,475.991 342.807,475.991 342.807,440.063 351.247,428.811 359.686,440.063 	"/>
</g>
<g>
	<rect x="342.804" y="412.492" style="fill:#FEC45E;" width="16.879" height="27.569"/>
	<rect x="342.804" y="348.993" style="fill:#FEC45E;" width="16.879" height="27.569"/>
</g>
<g>
	<rect x="342.804" y="46.781" style="fill:#FCDB5A;" width="16.879" height="48.225"/>
	<polygon style="fill:#FCDB5A;" points="296.188,158.503 279.309,158.503 279.309,122.575 287.749,111.322 296.188,122.575 	"/>
	<polygon style="fill:#FCDB5A;" points="296.188,222.001 279.309,222.001 279.309,186.072 287.749,174.819 296.188,186.072 	"/>
</g>
<g>
	<rect x="279.304" y="158.506" style="fill:#FEC45E;" width="16.879" height="27.569"/>
	<rect x="279.304" y="95.007" style="fill:#FEC45E;" width="16.879" height="27.569"/>
</g>
<g>
	<polygon style="fill:#FCDB5A;" points="296.188,285.498 279.309,285.498 279.309,249.57 287.749,238.317 296.188,249.57 	"/>
	<polygon style="fill:#FCDB5A;" points="296.188,348.996 279.309,348.996 279.309,313.067 287.749,301.814 296.188,313.067 	"/>
</g>
<g>
	<rect x="279.304" y="285.493" style="fill:#FEC45E;" width="16.879" height="27.569"/>
	<rect x="279.304" y="222.005" style="fill:#FEC45E;" width="16.879" height="27.569"/>
</g>
<g>
	<polygon style="fill:#FCDB5A;" points="296.188,412.494 279.309,412.494 279.309,376.565 287.749,365.313 296.188,376.565 	"/>
	<polygon style="fill:#FCDB5A;" points="296.188,487.244 279.309,487.244 279.309,440.063 287.749,428.811 296.188,440.063 	"/>
</g>
<g>
	<rect x="279.304" y="412.492" style="fill:#FEC45E;" width="16.879" height="27.569"/>
	<rect x="279.304" y="348.993" style="fill:#FEC45E;" width="16.879" height="27.569"/>
</g>
<rect x="279.304" y="24.276" style="fill:#FCDB5A;" width="16.879" height="70.73"/>
<g>
	<rect x="80.926" y="88.817" style="fill:#FFE6B8;" width="350.152" height="16.879"/>
	<rect x="46.782" y="152.317" style="fill:#FFE6B8;" width="418.433" height="16.879"/>
	<rect x="27.582" y="215.816" style="fill:#FFE6B8;" width="456.839" height="16.879"/>
	<rect x="27.582" y="279.304" style="fill:#FFE6B8;" width="456.839" height="16.879"/>
	<rect x="46.782" y="342.804" style="fill:#FFE6B8;" width="418.433" height="16.879"/>
	<rect x="80.926" y="406.303" style="fill:#FFE6B8;" width="350.152" height="16.879"/>
</g>
<path style="fill:#FE9837;" d="M256,0c141.38,0,256,114.62,256,256S397.38,512,256,512l-22.505-16.879L256,478.242
	c122.542,0,222.242-99.699,222.242-222.242S378.542,33.758,256,33.758l-22.505-16.879L256,0z"/>
<path style="fill:#FFAD61;" d="M256,478.242V512C114.62,512,0,397.38,0,256S114.62,0,256,0v33.758
	C133.458,33.758,33.758,133.458,33.758,256S133.458,478.242,256,478.242z"/>
<g>
</g>
<g>
</g>
<g>
</g>
<g>
</g>
<g>
</g>
<g>
</g>
<g>
</g>
<g>
</g>
<g>
</g>
<g>
</g>
<g>
</g>
<g>
</g>
<g>
</g>
<g>
</g>
<g>
</g>
</svg>
