<?xml version="1.0" encoding="iso-8859-1"?>
<!-- Generator: Adobe Illustrator 19.0.0, SVG Export Plug-In . SVG Version: 6.00 Build 0)  -->
<svg version="1.1" id="Layer_1" xmlns="http://www.w3.org/2000/svg" xmlns:xlink="http://www.w3.org/1999/xlink" x="0px" y="0px"
	 viewBox="0 0 512 512" style="enable-background:new 0 0 512 512;" xml:space="preserve">
<path style="fill:#FFF3DC;" d="M299.256,201.189v113.146h-41.962c-0.079-0.326-0.158-0.653-0.236-0.968L212.047,58.684h87.209
	V201.189z"/>
<path style="fill:#FFFFFF;" d="M257.058,58.684v254.683c-15.63-64.647-73.976-112.798-143.349-112.798V58.684H257.058z"/>
<polygon style="fill:#FEC45E;" points="457.897,216.043 457.897,289.681 379.128,334.377 424.139,212.881 "/>
<path style="fill:#FCDB5A;" d="M424.139,212.881v98.99l-91.564,60.18h-24.884l-46.503-24.002c0-11.59-1.35-22.888-3.893-33.713
	h41.962V201.189L424.139,212.881z"/>
<polygon style="fill:#5D734F;" points="290.812,58.682 290.812,318.269 307.691,307.017 307.691,58.682 "/>
<rect x="265.126" y="307.02" style="fill:#555843;" width="42.566" height="65.034"/>
<path style="fill:#FFF3DC;" d="M54.103,58.684v154.478c18.241-8.091,38.406-12.592,59.606-12.592l0.006-141.886H54.103z"/>
<path style="fill:#FCDB5A;" d="M113.708,201.189c-24.555,0-47.702,6.027-68.042,16.683v154.178h213.197
	c1.123-7.321,1.706-16.365,1.706-24C260.569,266.947,194.826,201.189,113.708,201.189z"/>
<path style="fill:#555843;" d="M113.709,234.328v227.429c62.813,0,113.72-50.907,113.72-113.709S176.522,234.328,113.709,234.328z"
	/>
<path style="fill:#5D734F;" d="M113.709,234.328c44.167,0,79.962,50.919,79.962,113.72s-35.795,113.709-79.962,113.709
	C50.907,461.758,0,410.85,0,348.049S50.907,234.328,113.709,234.328z"/>
<path style="fill:#BCC987;" d="M113.709,290.592v114.902c31.688,0,57.457-25.769,57.457-57.445S145.397,290.592,113.709,290.592z"/>
<path style="fill:#D4ED85;" d="M113.709,290.592c19.276,0,34.951,25.78,34.951,57.457s-15.675,57.445-34.951,57.445
	c-31.676,0-57.445-25.769-57.445-57.445S82.033,290.592,113.709,290.592z"/>
<path style="fill:#555843;" d="M422.282,282.333v179.425c49.557,0,89.718-40.161,89.718-89.707
	C512,322.494,471.839,282.333,422.282,282.333z"/>
<path style="fill:#5D734F;" d="M422.282,282.333c30.911,0,55.96,40.161,55.96,89.718c0,49.546-25.049,89.707-55.96,89.707
	c-49.546,0-89.707-40.161-89.707-89.707C332.575,322.494,372.736,282.333,422.282,282.333z"/>
<path style="fill:#BCC987;" d="M422.282,338.596v66.898c18.443,0,33.454-15,33.454-33.443
	C455.736,353.596,440.725,338.596,422.282,338.596z"/>
<path style="fill:#D4ED85;" d="M422.282,338.596c9.137,0,16.575,15,16.575,33.454c0,18.443-7.438,33.443-16.575,33.443
	c-18.443,0-33.443-15-33.443-33.443C388.839,353.596,403.839,338.596,422.282,338.596z"/>
<path style="fill:#555843;" d="M363.836,271.747c-4.661,0-8.44-3.779-8.44-8.44V154.33c0-4.661,3.779-8.44,8.44-8.44h12.698
	c4.661,0,8.44,3.779,8.44,8.44s-3.779,8.44-8.44,8.44h-4.258v100.538C372.276,267.97,368.497,271.747,363.836,271.747z"/>
<rect x="105.281" y="58.683" style="fill:#5D734F;" width="16.879" height="141.886"/>
<path style="fill:#FCDB5A;" d="M321.757,50.242H54.108c-4.661,0-8.44,3.779-8.44,8.44v154.487h16.879V67.122h259.209
	c4.661,0,8.44-3.779,8.44-8.44S326.417,50.242,321.757,50.242z"/>
<path style="fill:#FEC45E;" d="M259.245,380.487c-0.455,0-0.916-0.037-1.38-0.113c-4.599-0.756-7.715-5.098-6.96-9.697
	c1.221-7.43,1.841-15.045,1.841-22.633c0-76.663-62.369-139.033-139.033-139.033c-32.165,0-63.552,11.289-88.379,31.787
	c-3.595,2.966-8.913,2.459-11.882-1.135c-2.967-3.594-2.46-8.913,1.135-11.882c27.845-22.988,63.048-35.649,99.125-35.649
	c85.97,0,155.912,69.941,155.912,155.912c0,8.503-0.694,17.038-2.064,25.37C266.883,377.551,263.303,380.487,259.245,380.487z"/>
<g>
</g>
<g>
</g>
<g>
</g>
<g>
</g>
<g>
</g>
<g>
</g>
<g>
</g>
<g>
</g>
<g>
</g>
<g>
</g>
<g>
</g>
<g>
</g>
<g>
</g>
<g>
</g>
<g>
</g>
</svg>
