<?xml version="1.0" encoding="iso-8859-1"?>
<!-- Generator: Adobe Illustrator 19.0.0, SVG Export Plug-In . SVG Version: 6.00 Build 0)  -->
<svg version="1.1" id="Layer_1" xmlns="http://www.w3.org/2000/svg" xmlns:xlink="http://www.w3.org/1999/xlink" x="0px" y="0px"
	 viewBox="0 0 512 512" style="enable-background:new 0 0 512 512;" xml:space="preserve">
<path style="fill:#D4ED85;" d="M126.634,289.953c-44.65,0-81.62,33.517-87.069,76.714h174.137
	C208.252,323.47,171.283,289.953,126.634,289.953z"/>
<g>
	<path style="fill:#5D734F;" d="M347.796,221.718H8.303c-4.585,0-8.303-3.717-8.303-8.303c0-4.585,3.717-8.303,8.303-8.303h339.493
		c4.586,0,8.303,3.717,8.303,8.303C356.099,218.001,352.383,221.718,347.796,221.718z"/>
	<path style="fill:#5D734F;" d="M347.796,176.434H8.303c-4.585,0-8.303-3.717-8.303-8.303s3.717-8.303,8.303-8.303h339.493
		c4.586,0,8.303,3.717,8.303,8.303S352.383,176.434,347.796,176.434z"/>
	<rect x="109.474" y="111.776" style="fill:#5D734F;" width="16.605" height="146.924"/>
	<rect x="218.947" y="111.776" style="fill:#5D734F;" width="16.605" height="146.924"/>
</g>
<path style="fill:#4D3D36;" d="M478.271,443.333c-4.586,0-8.303-3.717-8.303-8.303V318.379c0-4.585,3.716-8.303,8.303-8.303
	c4.586,0,8.303,3.717,8.303,8.303v116.652C486.574,439.616,482.856,443.333,478.271,443.333z"/>
<polygon style="fill:#5D734F;" points="512,340.517 512,366.665 444.538,366.665 422.397,340.517 "/>
<path style="fill:#555843;" d="M126.634,334.231v109.097c30.122,0,54.554-24.421,54.554-54.543
	C181.187,358.652,156.755,334.231,126.634,334.231z"/>
<path style="fill:#5D734F;" d="M126.633,334.231c17.901,0,32.414,24.421,32.414,54.554c0,30.122-14.513,54.543-32.414,54.543
	c-30.122,0-54.554-24.421-54.554-54.543C72.078,358.652,96.51,334.231,126.633,334.231z"/>
<path style="fill:#BCC987;" d="M126.634,410.123c-11.767,0-21.339-9.572-21.339-21.338c0-11.767,9.572-21.339,21.339-21.339
	s21.339,9.572,21.339,21.339C147.973,400.55,138.4,410.123,126.634,410.123z"/>
<polygon style="fill:#9CAC74;" points="369.936,258.698 336.725,366.667 303.514,366.667 270.302,258.698 "/>
<path style="fill:#BCC987;" d="M303.514,258.698v107.968h-91.949c-9.819-37.716-44.181-65.647-84.931-65.647
	s-75.112,27.93-84.931,65.647h-33.4V258.698L303.514,258.698L303.514,258.698z"/>
<path style="fill:#4D3D36;" d="M8.303,250.396c-4.585,0-8.303,3.717-8.303,8.303s3.717,8.303,8.303,8.303h339.493v-16.605H8.303z"/>
<path style="fill:#9CAC74;" d="M412.467,68.667h-33.211l32.071,76.329l33.211-22.14v-22.118
	C444.538,83.025,430.18,68.667,412.467,68.667z"/>
<path style="fill:#BCC987;" d="M411.326,100.737v44.259l-74.602-22.14H8.303v-22.118c0-17.712,14.358-32.071,32.071-32.071h338.882
	C396.968,68.667,411.326,83.025,411.326,100.737z"/>
<path style="fill:#9CAC74;" d="M213.691,386.041c-4.123,0-7.698-3.068-8.227-7.265c-4.995-39.593-38.884-69.449-78.831-69.449
	s-73.836,29.856-78.831,69.449c-0.573,4.55-4.733,7.78-9.276,7.198c-4.55-0.575-7.772-4.727-7.198-9.276
	c6.04-47.874,47.012-83.977,95.306-83.977s89.266,36.102,95.306,83.977c0.575,4.549-2.649,8.702-7.198,9.276
	C214.389,386.018,214.038,386.041,213.691,386.041z"/>
<polygon style="fill:#C8DB86;" points="444.537,122.855 444.537,366.667 411.326,366.667 367.045,244.761 411.326,122.855 "/>
<rect x="336.724" y="122.858" style="fill:#D4ED85;" width="74.602" height="243.811"/>
<g>
</g>
<g>
</g>
<g>
</g>
<g>
</g>
<g>
</g>
<g>
</g>
<g>
</g>
<g>
</g>
<g>
</g>
<g>
</g>
<g>
</g>
<g>
</g>
<g>
</g>
<g>
</g>
<g>
</g>
</svg>
