<?xml version="1.0" encoding="iso-8859-1"?>
<!-- Generator: Adobe Illustrator 19.0.0, SVG Export Plug-In . SVG Version: 6.00 Build 0)  -->
<svg version="1.1" id="Layer_1" xmlns="http://www.w3.org/2000/svg" xmlns:xlink="http://www.w3.org/1999/xlink" x="0px" y="0px"
	 viewBox="0 0 512 512" style="enable-background:new 0 0 512 512;" xml:space="preserve">
<polygon style="fill:#4D3D36;" points="359.122,273.07 347.742,260.604 264.44,336.636 264.44,265.528 247.561,265.528 
	247.561,336.636 164.258,260.604 152.879,273.07 247.561,359.488 247.561,487.439 264.44,487.439 264.44,359.488 "/>
<path style="fill:#5D734F;" d="M257.699,464.942L350.917,512h33.758C350.343,482.98,306.075,465.347,257.699,464.942z"/>
<path style="fill:#7D9062;" d="M350.917,512H127.326c34.737-29.358,79.635-47.07,128.675-47.07c0.563,0,1.125,0,1.699,0.011
	C293.213,465.482,325.699,483.103,350.917,512z"/>
<path style="fill:#C8DB86;" d="M416.171,209.742c2.779-12.22,16.958-23.507,16.958-36.571c0-13.053-14.178-24.351-16.958-36.56
	c-2.869-12.626,4.951-28.931-0.54-40.307c-5.581-11.579-23.259-15.607-31.204-25.544c-7.967-9.981-7.989-28.109-17.982-36.076
	c-7.438-5.941-19.208-5.21-29.516-6.797l2.329,290.263c9.711-1.204,20.3-0.99,27.187-6.482c9.981-7.978,10.015-26.095,17.982-36.087
	c7.933-9.936,25.611-13.965,31.192-25.532C421.111,238.661,413.302,222.356,416.171,209.742z"/>
<path style="fill:#D4ED85;" d="M386.655,136.16c2.284,12.434,13.965,23.912,13.965,37.201s-11.68,24.767-13.965,37.201
	c-2.363,12.839,4.073,29.426-0.45,41.005c-4.602,11.77-19.152,15.878-25.69,25.982c-6.572,10.161-6.583,28.593-14.809,36.706
	c-1.868,1.845-4.051,3.049-6.448,3.893c-4.31,0.518-8.44,1.339-11.984,3.049c-1.733,0.844-3.387,1.935-4.985,3.185
	c-13.976-21.853-38.428-36.346-66.29-36.346s-52.314,14.493-66.29,36.346c-1.598-1.249-3.252-2.341-4.985-3.185
	c-11.579-5.581-29.234-1.598-39.171-9.531c-9.992-7.978-10.015-26.095-17.982-36.087c-7.944-9.936-25.622-13.965-31.204-25.532
	c-5.491-11.388,2.329-27.693-0.54-40.307c-2.779-12.22-16.958-23.507-16.958-36.571c0-13.053,14.178-24.351,16.958-36.56
	c2.869-12.626-4.951-28.931,0.551-40.307c5.581-11.579,23.248-15.607,31.192-25.544c7.967-9.981,8.001-28.109,17.982-36.076
	c9.936-7.933,27.592-3.961,39.171-9.542c11.376-5.491,19.242-21.83,31.856-24.7c12.22-2.779,26.354,8.473,39.418,8.473
	c13.064,0,27.198-11.253,39.418-8.473c12.614,2.869,20.48,19.208,31.856,24.7c2.892,1.395,6.166,2.194,9.61,2.734
	c3.342,0.844,6.369,2.161,8.822,4.591c8.226,8.113,8.237,26.545,14.809,36.706c6.538,10.116,21.088,14.212,25.69,25.982
	C390.729,106.735,384.292,123.332,386.655,136.16z"/>
<path style="fill:#D35B38;" d="M338.404,150.215v45.922c12.682,0,22.956-10.285,22.956-22.967
	C361.359,160.489,351.086,150.215,338.404,150.215z"/>
<path style="fill:#E86F22;" d="M338.404,150.215c3.353,0,6.076,10.274,6.076,22.956s-2.723,22.967-6.076,22.967
	c-12.682,0-22.955-10.285-22.955-22.967C315.448,160.489,325.722,150.215,338.404,150.215z"/>
<path style="fill:#D35B38;" d="M256,75.657v45.922c12.682,0,22.956-10.285,22.956-22.967S268.682,75.657,256,75.657z"/>
<path style="fill:#E86F22;" d="M256,75.657c3.353,0,6.076,10.274,6.076,22.956s-2.723,22.967-6.076,22.967
	c-12.682,0-22.955-10.285-22.955-22.967S243.318,75.657,256,75.657z"/>
<path style="fill:#D35B38;" d="M173.598,150.212v45.922c12.682,0,22.956-10.285,22.956-22.967
	C196.553,160.485,186.28,150.212,173.598,150.212z"/>
<path style="fill:#E86F22;" d="M173.598,150.212c3.353,0,6.076,10.274,6.076,22.956s-2.723,22.967-6.076,22.967
	c-12.682,0-22.955-10.285-22.955-22.967S160.916,150.212,173.598,150.212z"/>
<g>
</g>
<g>
</g>
<g>
</g>
<g>
</g>
<g>
</g>
<g>
</g>
<g>
</g>
<g>
</g>
<g>
</g>
<g>
</g>
<g>
</g>
<g>
</g>
<g>
</g>
<g>
</g>
<g>
</g>
</svg>
