<?xml version="1.0" encoding="iso-8859-1"?>
<!-- Generator: Adobe Illustrator 19.0.0, SVG Export Plug-In . SVG Version: 6.00 Build 0)  -->
<svg version="1.1" id="Layer_1" xmlns="http://www.w3.org/2000/svg" xmlns:xlink="http://www.w3.org/1999/xlink" x="0px" y="0px"
	 viewBox="0 0 512.001 512.001" style="enable-background:new 0 0 512.001 512.001;" xml:space="preserve">
<path style="fill:#9CAC74;" d="M508.694,4.647L348.131,281.715l38.893,8.848C452.836,224.752,528.865,83.858,508.694,4.647z"/>
<path style="fill:#BCC987;" d="M363.154,266.692l-15.023,15.023l-94.903-21.603l88.012-151.668L508.694,4.647
	C514.423,69.416,428.966,200.88,363.154,266.692z"/>
<path style="fill:#D4ED85;" d="M253.234,260.113l-30.459-133.804C288.587,60.497,429.48-15.532,508.7,4.647L325.332,188.015
	l-23.871,23.871L253.234,260.113z"/>
<path style="fill:#9CAC74;" d="M301.46,211.879c-3.296-3.296-8.64-3.296-11.936,0L184.032,317.371l11.936,11.936L301.46,223.815
	C304.756,220.519,304.756,215.175,301.46,211.879z"/>
<path style="fill:#FEC45E;" d="M179.379,337.16L11.106,499.56c14.8,14.8,38.806,14.808,53.614,0l122.616-122.616L179.379,337.16z"/>
<path style="fill:#FCDB5A;" d="M187.336,345.117l-138.53,138.53c-14.808,14.808-31.685,21.93-37.7,15.914
	c-14.808-14.808-14.808-38.806,0-53.614L133.722,323.33L187.336,345.117z"/>
<path style="fill:#9CAC74;" d="M211.208,324.651l-7.472-7.472l-32.314,43.851l15.914,15.914l23.871-23.871
	C219.053,345.228,219.053,332.497,211.208,324.651z"/>
<path style="fill:#BCC987;" d="M195.294,337.16l-23.871,23.871l-37.7-37.7l23.871-23.871c7.845-7.845,20.569-7.853,28.415-0.008
	l17.728,17.728C206.918,320.363,203.14,329.313,195.294,337.16z"/>
<g>
</g>
<g>
</g>
<g>
</g>
<g>
</g>
<g>
</g>
<g>
</g>
<g>
</g>
<g>
</g>
<g>
</g>
<g>
</g>
<g>
</g>
<g>
</g>
<g>
</g>
<g>
</g>
<g>
</g>
</svg>
