<?xml version="1.0" encoding="iso-8859-1"?>
<!-- Generator: Adobe Illustrator 19.0.0, SVG Export Plug-In . SVG Version: 6.00 Build 0)  -->
<svg version="1.1" id="Layer_1" xmlns="http://www.w3.org/2000/svg" xmlns:xlink="http://www.w3.org/1999/xlink" x="0px" y="0px"
	 viewBox="0 0 511.999 511.999" style="enable-background:new 0 0 511.999 511.999;" xml:space="preserve">
<polygon style="fill:#FE9837;" points="389.42,402.808 390.74,436.376 357.172,436.376 311.094,402.808 "/>
<path style="fill:#FFAD61;" d="M355.852,402.808l1.32,33.568H154.958l1.32-33.568C156.289,402.808,355.852,402.808,355.852,402.808z
	"/>
<rect x="87.646" y="165.178" style="fill:#FE9837;" width="88.799" height="16.784"/>
<path style="fill:#FEC45E;" d="M265.911,87.367v99.015l-99.395-44.757C187.552,108.996,224.197,87.367,265.911,87.367z"/>
<path style="fill:#FFAD61;" d="M413.566,176.3c54.369,0,98.433,44.064,98.433,98.433c0,54.358-44.064,98.422-98.433,98.422
	c-8.795,0-17.321-1.152-25.433-3.312l-23.186-18.025l21.768-18.025l1.631,0.692c7.754,3.29,16.281,5.114,25.221,5.114
	c35.772,0,64.865-29.104,64.865-64.865c0-35.772-29.092-64.876-64.865-64.876c-11.38,0-22.088,2.954-31.386,8.123l-22.989-18.043
	l21.568-18.043C391.02,178.27,402.064,176.3,413.566,176.3z"/>
<polygon style="fill:#FEC45E;" points="379.181,141.626 389.42,402.808 311.094,402.808 345.613,141.626 "/>
<path style="fill:#FCDB5A;" d="M345.613,141.626l10.238,261.182H156.289c-0.011,0,1.141-29.473,1.141-29.473L13.636,107.174
	l30.916-19.805l54.291,86.203l62.526,99.283l5.147-131.229L345.613,141.626L345.613,141.626z"/>
<path style="fill:#FE9837;" d="M389.431,411.2H156.289c-4.635,0-8.392-3.757-8.392-8.392c0-4.635,3.757-8.392,8.392-8.392H389.42
	c4.635,0,8.398,3.757,8.398,8.392C397.817,407.443,394.066,411.2,389.431,411.2z"/>
<path style="fill:#FEC45E;" d="M8.4,118.918c-2.766,0-5.473-1.366-7.075-3.868c-2.499-3.904-1.361-9.094,2.542-11.593l41.401-26.509
	c3.905-2.497,9.094-1.36,11.593,2.542c2.499,3.904,1.361,9.094-2.542,11.593l-41.401,26.509
	C11.517,118.49,9.949,118.918,8.4,118.918z"/>
<g>
</g>
<g>
</g>
<g>
</g>
<g>
</g>
<g>
</g>
<g>
</g>
<g>
</g>
<g>
</g>
<g>
</g>
<g>
</g>
<g>
</g>
<g>
</g>
<g>
</g>
<g>
</g>
<g>
</g>
</svg>
