<?xml version="1.0" encoding="iso-8859-1"?>
<!-- Generator: Adobe Illustrator 19.0.0, SVG Export Plug-In . SVG Version: 6.00 Build 0)  -->
<svg version="1.1" id="Layer_1" xmlns="http://www.w3.org/2000/svg" xmlns:xlink="http://www.w3.org/1999/xlink" x="0px" y="0px"
	 viewBox="0 0 512 512" style="enable-background:new 0 0 512 512;" xml:space="preserve">
<path style="fill:#BCC987;" d="M84.081,167.302c-4.662,0-8.44,3.779-8.44,8.44v42.481H64.974c-4.662,0-8.44,3.779-8.44,8.44
	s3.778,8.44,8.44,8.44h19.107c4.662,0,8.44-3.779,8.44-8.44v-42.481h297.187v-16.879H84.081z"/>
<g>
	<polygon style="fill:#FEC45E;" points="405.357,100.318 405.357,145.329 391.905,167.835 378.452,145.329 378.452,100.318 	"/>
	<polygon style="fill:#FEC45E;" points="161.094,100.318 161.094,145.329 147.647,167.835 134.2,145.329 134.2,100.318 	"/>
</g>
<g>
	<rect x="378.452" y="145.329" style="fill:#FCDB5A;" width="26.905" height="162.107"/>
	<rect x="134.2" y="145.329" style="fill:#FCDB5A;" width="26.894" height="162.107"/>
</g>
<path style="fill:#4D3D36;" d="M320.41,327.124c-4.662,0-8.44-3.779-8.44-8.44V164.29c0-4.661,3.778-8.44,8.44-8.44
	s8.44,3.779,8.44,8.44v154.394C328.85,323.345,325.072,327.124,320.41,327.124z"/>
<polygon style="fill:#D35B38;" points="429.157,0 455.466,111.571 421.707,111.571 364.466,55.785 395.398,0 "/>
<polygon style="fill:#E86F22;" points="395.398,0 421.707,111.571 84.08,111.571 110.389,0 "/>
<g>
	<path style="fill:#D35B38;" d="M276.852,61.411c-13.96,0-25.319-11.357-25.319-25.319c0-4.661,3.778-8.44,8.44-8.44
		c4.662,0,8.44,3.779,8.44,8.44c0,4.654,3.785,8.44,8.44,8.44c4.654,0,8.44-3.785,8.44-8.44c0-4.661,3.778-8.44,8.44-8.44
		s8.44,3.779,8.44,8.44C302.171,50.052,290.812,61.411,276.852,61.411z"/>
	<path style="fill:#D35B38;" d="M355.621,83.916c-13.96,0-25.319-11.357-25.319-25.319c0-4.661,3.778-8.44,8.44-8.44
		s8.44,3.779,8.44,8.44c0,4.654,3.785,8.44,8.44,8.44s8.44-3.785,8.44-8.44c0-4.661,3.778-8.44,8.44-8.44s8.44,3.779,8.44,8.44
		C380.94,72.558,369.581,83.916,355.621,83.916z"/>
</g>
<polygon style="fill:#FEC45E;" points="131.949,340.362 131.949,385.373 373.849,512 407.608,512 407.608,340.362 "/>
<rect x="131.949" y="385.373" style="fill:#FCDB5A;" width="241.9" height="126.627"/>
<polygon style="fill:#9CAC74;" points="419.266,296.184 419.266,351.615 385.507,351.615 363.002,323.899 385.507,296.184 "/>
<rect x="120.28" y="296.184" style="fill:#BCC987;" width="265.227" height="55.431"/>
<g>
	<path style="fill:#4D3D36;" d="M269.773,195.634c-4.662,0-8.44-3.779-8.44-8.44V164.29c0-4.661,3.778-8.44,8.44-8.44
		c4.662,0,8.44,3.779,8.44,8.44v22.904C278.212,191.855,274.435,195.634,269.773,195.634z"/>
	<path style="fill:#4D3D36;" d="M295.091,195.634c-4.662,0-8.44-3.779-8.44-8.44V164.29c0-4.661,3.778-8.44,8.44-8.44
		c4.662,0,8.44,3.779,8.44,8.44v22.904C303.531,191.855,299.754,195.634,295.091,195.634z"/>
	<path style="fill:#4D3D36;" d="M244.454,195.634c-4.662,0-8.44-3.779-8.44-8.44V164.29c0-4.661,3.778-8.44,8.44-8.44
		s8.44,3.779,8.44,8.44v22.904C252.894,191.855,249.116,195.634,244.454,195.634z"/>
	<path style="fill:#4D3D36;" d="M219.135,195.634c-4.662,0-8.44-3.779-8.44-8.44V164.29c0-4.661,3.778-8.44,8.44-8.44
		s8.44,3.779,8.44,8.44v22.904C227.575,191.855,223.797,195.634,219.135,195.634z"/>
</g>
<g>
	<circle style="fill:#FEC45E;" cx="200.861" cy="465.571" r="8.44"/>
	<circle style="fill:#FEC45E;" cx="327.454" cy="431.813" r="8.44"/>
	<circle style="fill:#FEC45E;" cx="178.355" cy="431.813" r="8.44"/>
</g>
<g>
</g>
<g>
</g>
<g>
</g>
<g>
</g>
<g>
</g>
<g>
</g>
<g>
</g>
<g>
</g>
<g>
</g>
<g>
</g>
<g>
</g>
<g>
</g>
<g>
</g>
<g>
</g>
<g>
</g>
</svg>
