<?xml version="1.0" encoding="iso-8859-1"?>
<!-- Generator: Adobe Illustrator 19.0.0, SVG Export Plug-In . SVG Version: 6.00 Build 0)  -->
<svg version="1.1" id="Layer_1" xmlns="http://www.w3.org/2000/svg" xmlns:xlink="http://www.w3.org/1999/xlink" x="0px" y="0px"
	 viewBox="0 0 512 512" style="enable-background:new 0 0 512 512;" xml:space="preserve">
<polygon style="fill:#FEC45E;" points="434.31,151.377 434.31,224.56 386.727,272.949 386.727,199.755 "/>
<polygon style="fill:#FFE6B8;" points="386.727,272.949 386.727,346.133 339.143,297.754 339.143,224.56 "/>
<polygon style="fill:#FEC45E;" points="434.31,297.754 434.31,370.937 386.727,419.327 386.727,346.133 "/>
<g>
	<polygon style="fill:#FCDB5A;" points="386.727,346.133 386.727,419.327 339.143,370.937 339.143,297.754 	"/>
	<polygon style="fill:#FCDB5A;" points="434.31,224.56 434.31,297.754 386.727,346.133 386.727,272.949 	"/>
	<polygon style="fill:#FCDB5A;" points="386.727,199.755 386.727,272.949 339.143,224.56 339.143,151.377 	"/>
	<path style="fill:#FCDB5A;" d="M339.143,74.396c-4.512,0-8.17,3.657-8.17,8.17v280.062l16.34,16.483V82.566
		C347.314,78.053,343.655,74.396,339.143,74.396z"/>
</g>
<path style="fill:#FEC45E;" d="M434.305,74.396c4.512,0,8.17,3.657,8.17,8.17v280.062l-16.34,16.483V82.566
	C426.134,78.053,429.792,74.396,434.305,74.396z"/>
<path style="fill:#FFAD61;" d="M386.723,512c-4.512,0-8.17-3.657-8.17-8.17V82.566c0-4.513,3.658-8.17,8.17-8.17
	s8.17,3.657,8.17,8.17V503.83C394.895,508.343,391.237,512,386.723,512z"/>
<polygon style="fill:#FEC45E;" points="172.862,151.377 172.862,224.56 125.279,272.949 125.279,199.755 "/>
<polygon style="fill:#FFE6B8;" points="125.279,272.949 125.279,346.133 77.695,297.754 77.695,224.56 "/>
<polygon style="fill:#FEC45E;" points="172.862,297.754 172.862,370.937 125.279,419.327 125.279,346.133 "/>
<g>
	<polygon style="fill:#FCDB5A;" points="125.279,346.133 125.279,419.327 77.695,370.937 77.695,297.754 	"/>
	<polygon style="fill:#FCDB5A;" points="172.862,224.56 172.862,297.754 125.279,346.133 125.279,272.949 	"/>
	<polygon style="fill:#FCDB5A;" points="125.279,199.755 125.279,272.949 77.695,224.56 77.695,151.377 	"/>
	<path style="fill:#FCDB5A;" d="M77.695,74.396c-4.512,0-8.17,3.657-8.17,8.17v280.062l16.34,16.483V82.566
		C85.866,78.053,82.208,74.396,77.695,74.396z"/>
</g>
<path style="fill:#FEC45E;" d="M172.857,74.396c4.512,0,8.17,3.657,8.17,8.17v280.062l-16.34,16.483V82.566
	C164.686,78.053,168.344,74.396,172.857,74.396z"/>
<path style="fill:#FFAD61;" d="M125.277,512c-4.512,0-8.17-3.657-8.17-8.17V82.566c0-4.513,3.658-8.17,8.17-8.17
	s8.17,3.657,8.17,8.17V503.83C133.447,508.343,129.789,512,125.277,512z"/>
<polygon style="fill:#FEC45E;" points="303.587,76.981 303.587,150.164 256.003,198.554 256.003,125.359 "/>
<polygon style="fill:#FFE6B8;" points="256.003,198.554 256.003,271.737 208.42,223.358 208.42,150.164 "/>
<polygon style="fill:#FEC45E;" points="303.587,223.358 303.587,296.542 256.003,344.931 256.003,271.737 "/>
<g>
	<polygon style="fill:#FCDB5A;" points="256.003,271.737 256.003,344.931 208.42,296.542 208.42,223.358 	"/>
	<polygon style="fill:#FCDB5A;" points="303.587,150.164 303.587,223.358 256.003,271.737 256.003,198.554 	"/>
	<polygon style="fill:#FCDB5A;" points="256.003,125.359 256.003,198.554 208.42,150.164 208.42,76.981 	"/>
	<path style="fill:#FCDB5A;" d="M208.419,0c-4.512,0-8.17,3.657-8.17,8.17v280.062l16.34,16.483V8.17
		C216.589,3.657,212.931,0,208.419,0z"/>
</g>
<path style="fill:#FEC45E;" d="M303.581,0c4.512,0,8.17,3.657,8.17,8.17v280.062l-16.34,16.483V8.17
	C295.411,3.657,299.069,0,303.581,0z"/>
<path style="fill:#FFAD61;" d="M256,512c-4.512,0-8.17-3.657-8.17-8.17V8.17c0-4.513,3.658-8.17,8.17-8.17s8.17,3.657,8.17,8.17
	v495.66C264.17,508.343,260.512,512,256,512z"/>
<g>
</g>
<g>
</g>
<g>
</g>
<g>
</g>
<g>
</g>
<g>
</g>
<g>
</g>
<g>
</g>
<g>
</g>
<g>
</g>
<g>
</g>
<g>
</g>
<g>
</g>
<g>
</g>
<g>
</g>
</svg>
